<svg width="109" height="82" viewBox="0 0 109 82" fill="none" xmlns="http://www.w3.org/2000/svg">
<rect x="35.9453" y="0.195312" width="37.1094" height="37.1094" rx="9.44531" fill="white"/>
<rect x="35.9453" y="0.195312" width="37.1094" height="37.1094" rx="9.44531" stroke="#77BDE0" stroke-width="0.390625"/>
<path opacity="0.4" d="M62.7389 13.6066V19.8097H43.6077V13.6066C43.6077 11.2999 45.4874 9.42017 47.7941 9.42017H58.5524C60.8592 9.42017 62.7389 11.2999 62.7389 13.6066Z" fill="url(#paint0_linear_1122_1148)" stroke="#1774A3" stroke-width="0.137206"/>
<path d="M43.5391 19.8879V20.0809C43.5391 22.4352 45.4495 24.336 47.7941 24.336H51.4992C52.0299 24.336 52.4641 24.7702 52.4641 25.3009V26.2368C52.4641 26.7675 52.0299 27.2016 51.4992 27.2016H49.1642C48.7686 27.2016 48.4406 27.5297 48.4406 27.9253C48.4406 28.3209 48.759 28.6489 49.1642 28.6489H57.2209C57.6165 28.6489 57.9445 28.3209 57.9445 27.9253C57.9445 27.5297 57.6165 27.2016 57.2209 27.2016H54.8859C54.3552 27.2016 53.921 26.7675 53.921 26.2368V25.3009C53.921 24.7702 54.3552 24.336 54.8859 24.336H58.5621C60.9163 24.336 62.8171 22.4255 62.8171 20.0809V19.8879H43.5391Z" fill="url(#paint1_linear_1122_1148)"/>
<path d="M66.3252 17.2502H61.2211C59.5518 17.2502 58.944 17.8581 58.944 19.5466V27.0051C58.944 28.7032 59.5422 29.3014 61.2211 29.3014H66.3252C67.9944 29.3014 68.6023 28.6936 68.6023 27.0051V19.5466C68.6023 17.8485 68.0041 17.2502 66.3252 17.2502ZM63.778 27.6901C63.1894 27.6901 62.7166 27.2173 62.7166 26.6288C62.7166 26.0402 63.1894 25.5674 63.778 25.5674C64.3665 25.5674 64.8393 26.0402 64.8393 26.6288C64.8393 27.2173 64.3665 27.6901 63.778 27.6901Z" fill="url(#paint2_linear_1122_1148)"/>
<path opacity="0.4" d="M64.8395 26.6287C64.8395 27.2173 64.3667 27.6901 63.7782 27.6901C63.1896 27.6901 62.7168 27.2173 62.7168 26.6287C62.7168 26.0402 63.1896 25.5674 63.7782 25.5674C64.3667 25.5674 64.8395 26.0498 64.8395 26.6287Z" fill="white"/>
<path d="M38.4634 60.848C36.3514 60.848 34.8274 59.528 34.9234 57.368C34.9594 56.36 35.3794 55.244 35.7154 54.572L36.5314 54.956C36.1834 55.7 35.8714 56.564 35.8594 57.368C35.8354 58.94 36.7714 59.768 38.4634 59.768C40.0234 59.768 41.2834 59.024 41.4034 58.604C41.2954 58.34 40.2034 57.548 39.0154 57.056L39.2434 56.036C40.3474 56.264 41.3554 56.42 42.3394 56.42H42.6274L42.6874 56.96L42.6274 57.5H42.3394C42.0274 57.5 41.7154 57.488 41.4154 57.452C41.9434 57.812 42.3394 58.22 42.3274 58.64C42.2794 59.744 40.5394 60.848 38.4634 60.848ZM49.1307 56.42C49.7427 56.42 50.0307 56.06 50.0307 55.424C50.0307 54.8 49.5387 53.492 49.3827 53.156L50.2347 52.688C50.4747 53.192 50.9547 54.5 50.9547 55.424C50.9547 56.588 50.2107 57.488 49.1547 57.5H49.1307H49.1067C48.2787 57.488 47.7627 57.032 47.5707 56.24C47.2227 56.948 46.6227 57.488 45.9027 57.5H45.8667C45.1227 57.5 44.6067 57.02 44.5107 56.276C44.0067 57.08 43.3107 57.5 42.4827 57.5H42.4347L42.3747 56.96L42.4347 56.42H42.4947C43.0947 56.42 43.6587 56.108 43.9467 55.676C44.3067 55.184 44.4627 54.512 44.5587 54.14L45.4587 54.236C45.3507 54.644 45.2187 55.112 45.2067 55.544C45.1947 56.108 45.3867 56.42 45.8787 56.42H45.9027C46.3947 56.42 46.7547 56.108 47.0547 55.58C47.2947 55.136 47.4147 54.38 47.4747 54.02L48.3627 54.068C48.3147 54.332 48.2067 54.86 48.2067 55.28C48.2067 56.024 48.4707 56.42 49.1307 56.42ZM54.9735 57.5C54.6495 57.5 54.3855 57.416 54.1695 57.284V57.464C54.1695 58.916 52.7655 60.296 50.9295 60.944L50.5215 60.008C52.0935 59.468 53.2455 58.34 53.2455 57.464C53.2455 56.972 52.8855 55.448 52.6335 54.464L53.5575 54.116C53.6775 54.5 53.7855 54.908 53.8695 55.328C54.1095 56.12 54.4095 56.42 54.9735 56.42H55.0575L55.1175 56.96L55.0575 57.5H54.9735ZM54.938 57.5V56.42H55.046C56.93 56.42 57.386 56.18 57.59 55.64C57.746 55.232 57.626 54.512 57.518 53.804L58.406 53.636C58.562 54.428 58.562 55.556 58.562 55.556C58.67 56.12 59.042 56.42 59.654 56.42H59.738L59.798 56.96L59.738 57.5H59.654C58.958 57.5 58.394 57.104 58.106 56.552C57.722 57.26 56.858 57.5 55.046 57.5H54.938ZM55.334 51.824C55.598 51.56 55.874 51.296 56.138 51.02L56.942 51.824C56.678 52.1 56.414 52.364 56.138 52.64C55.874 52.364 55.598 52.1 55.334 51.824ZM57.47 51.824C57.734 51.56 58.01 51.296 58.274 51.02L59.078 51.824C58.814 52.1 58.55 52.364 58.274 52.64C58.01 52.364 57.734 52.1 57.47 51.824ZM66.3338 56.42C66.9458 56.42 67.2338 56.06 67.2338 55.424C67.2338 54.8 66.7418 53.492 66.5858 53.156L67.4378 52.688C67.6778 53.192 68.1578 54.5 68.1578 55.424C68.1578 56.588 67.4138 57.488 66.3578 57.5H66.3338H66.3098C65.4818 57.488 64.9658 57.032 64.7738 56.24C64.4258 56.948 63.8258 57.488 63.1058 57.5H63.0698C62.3258 57.5 61.8098 57.02 61.7138 56.276C61.2098 57.08 60.5138 57.5 59.6858 57.5H59.6378L59.5778 56.96L59.6378 56.42H59.6978C60.2978 56.42 60.8618 56.108 61.1498 55.676C61.5098 55.184 61.6658 54.512 61.7618 54.14L62.6618 54.236C62.5538 54.644 62.4218 55.112 62.4098 55.544C62.3978 56.108 62.5898 56.42 63.0818 56.42H63.1058C63.5978 56.42 63.9578 56.108 64.2578 55.58C64.4978 55.136 64.6178 54.38 64.6778 54.02L65.5658 54.068C65.5178 54.332 65.4098 54.86 65.4098 55.28C65.4098 56.024 65.6738 56.42 66.3338 56.42ZM69.3964 55.892C69.7444 56.084 70.3804 56.504 71.5324 56.504C72.4804 56.504 72.9964 56.168 73.1284 55.904C73.3924 55.328 72.7924 53.996 70.6924 52.448L71.2324 51.512C73.3924 53.144 74.5084 55.04 73.9084 56.384C73.5724 57.14 72.6484 57.536 71.6164 57.536C70.2004 57.536 69.3244 57.02 68.9284 56.684L69.3964 55.892ZM24.6345 71.456C24.4545 71.96 24.2265 72.644 24.3105 73.184C24.4305 74.036 25.5825 74.54 27.8865 74.54C30.7905 74.54 31.9665 73.82 32.5185 72.14L33.4065 72.236C32.9745 73.604 33.1905 74.42 34.2345 74.42L34.2945 74.96L34.2345 75.5C33.2745 75.5 32.5545 74.924 32.4345 73.952C31.5105 75.14 30.0105 75.608 27.9225 75.62C25.1385 75.632 23.5305 74.816 23.3865 73.34C23.3145 72.56 23.5665 71.636 23.8185 71.048L24.6345 71.456ZM26.2665 71.276C26.5305 71.012 26.8065 70.748 27.0705 70.472L27.8745 71.276C27.6105 71.552 27.3465 71.816 27.0705 72.092C26.8065 71.816 26.5305 71.552 26.2665 71.276ZM28.4025 71.276C28.6665 71.012 28.9425 70.748 29.2065 70.472L30.0105 71.276C29.7465 71.552 29.4825 71.816 29.2065 72.092C28.9425 71.816 28.6665 71.552 28.4025 71.276ZM34.1077 75.5V74.42H35.2117C37.3357 74.42 39.0157 73.844 40.6237 72.992C40.7917 72.896 40.9597 72.812 41.1277 72.74C40.5877 72.644 40.0717 72.452 39.5197 72.176C38.8597 71.828 38.2357 71.564 37.6117 71.564C36.8797 71.552 36.3037 72.092 36.0637 72.572L35.4157 72.128C35.9317 71.084 36.7117 70.532 37.6477 70.544C38.3797 70.556 38.9677 70.856 39.8677 71.312C40.6477 71.708 41.2957 72.056 42.1837 72.236L42.2197 73.184C41.8837 73.28 41.5597 73.448 40.9837 73.76C39.2197 74.684 37.4677 75.5 35.2117 75.5H34.1077ZM43.554 75.428C43.734 73.82 43.578 68.36 43.422 67.352L44.382 67.148C44.526 68.144 44.73 73.676 44.526 75.548L43.554 75.428ZM44.6094 78.008C46.1814 77.468 47.3334 76.34 47.3334 75.464C47.3334 74.972 46.9734 73.448 46.7214 72.464L47.6454 72.116C47.9814 73.22 48.2574 74.636 48.2574 75.464C48.2574 76.916 46.8534 78.296 45.0174 78.944L44.6094 78.008ZM53.2897 77.984C55.6057 77.48 56.8177 76.676 57.0217 75.452C55.9297 75.668 54.2977 75.536 53.7697 74.504C53.1337 73.22 54.1777 70.916 55.5337 70.916C57.0337 70.916 57.8977 73.208 57.8977 74.96C57.8977 76.964 56.2897 78.404 53.6017 78.944L53.2897 77.984ZM54.5377 73.904C54.8857 74.456 56.0497 74.564 57.0097 74.42C56.8657 73.256 56.3737 72.032 55.5097 71.972C54.8017 71.924 54.1657 73.316 54.5377 73.904ZM64.6862 72.572C64.3382 73.316 64.0262 74.18 64.0142 74.984C63.9902 76.556 64.9262 77.384 66.6182 77.384C68.6702 77.384 69.5222 76.1 69.5222 74.984C69.5222 74.144 69.1262 72.788 68.8622 71.984L69.7502 71.576C70.1942 72.968 70.4342 74 70.4342 74.984C70.4342 76.664 69.1022 78.464 66.6182 78.464C64.1822 78.464 63.0062 76.784 63.0782 74.984C63.1142 73.964 63.5342 72.86 63.8702 72.188L64.6862 72.572ZM66.0182 71.756C66.3062 71.468 66.5822 71.18 66.8702 70.904C67.1582 71.18 67.4342 71.468 67.7222 71.756L66.8702 72.608C66.5822 72.32 66.3062 72.044 66.0182 71.756ZM72.5656 67.148C72.7096 68.132 72.7936 71.3 72.7696 72.572C72.7336 73.94 72.8056 74.42 74.0296 74.42H74.0896L74.1496 74.96L74.0896 75.5H74.0296C72.2416 75.5 71.7856 74.588 71.8216 72.68C71.8336 71.276 71.7616 68.36 71.6056 67.352L72.5656 67.148ZM80.6952 74.42C81.3072 74.42 81.5952 74.06 81.5952 73.424C81.5952 72.8 81.1032 71.492 80.9472 71.156L81.7992 70.688C82.0392 71.192 82.5192 72.5 82.5192 73.424C82.5192 74.588 81.7752 75.488 80.7192 75.5H80.6952H80.6712C79.8432 75.488 79.3272 75.032 79.1352 74.24C78.7872 74.948 78.1872 75.488 77.4672 75.5H77.4312C76.6872 75.5 76.1712 75.02 76.0752 74.276C75.5712 75.08 74.8752 75.5 74.0472 75.5H73.9992L73.9392 74.96L73.9992 74.42H74.0592C74.6592 74.42 75.2232 74.108 75.5112 73.676C75.8712 73.184 76.0272 72.512 76.1232 72.14L77.0232 72.236C76.9152 72.644 76.7832 73.112 76.7712 73.544C76.7592 74.108 76.9512 74.42 77.4432 74.42H77.4672C77.9592 74.42 78.3192 74.108 78.6192 73.58C78.8592 73.136 78.9792 72.38 79.0392 72.02L79.9272 72.068C79.8792 72.332 79.7712 72.86 79.7712 73.28C79.7712 74.024 80.0352 74.42 80.6952 74.42ZM83.8897 75.428C84.0577 73.82 83.9017 69.428 83.7457 68.42L84.7057 68.216C84.8617 69.212 85.0657 73.676 84.8497 75.548L83.8897 75.428ZM82.2697 67.544C82.5337 66.896 82.9417 66.512 83.4217 66.488C84.0457 66.452 84.3577 66.848 84.8617 66.848C85.1617 66.848 85.4977 66.656 85.7017 66.356L86.0977 66.704C85.7857 67.172 85.3177 67.46 84.8617 67.46C84.2617 67.46 83.9737 67.076 83.4577 67.1C83.1577 67.112 82.8817 67.352 82.7137 67.784L82.2697 67.544Z" fill="#092B3D"/>
<defs>
<linearGradient id="paint0_linear_1122_1148" x1="52.9835" y1="9.77309" x2="52.9835" y2="26.57" gradientUnits="userSpaceOnUse">
<stop stop-color="#61BAE8"/>
<stop offset="1" stop-color="#D2E8F3"/>
</linearGradient>
<linearGradient id="paint1_linear_1122_1148" x1="56.016" y1="19.2681" x2="31.3755" y2="15.9593" gradientUnits="userSpaceOnUse">
<stop stop-color="#1D91CC"/>
<stop offset="1" stop-color="#D0DFE9"/>
</linearGradient>
<linearGradient id="paint2_linear_1122_1148" x1="64.9374" y1="24.6173" x2="55.5484" y2="13.401" gradientUnits="userSpaceOnUse">
<stop stop-color="#1D91CC"/>
<stop offset="1" stop-color="#D0DFE9"/>
</linearGradient>
</defs>
</svg>
