<svg width="182" height="66" viewBox="0 0 182 66" fill="none" xmlns="http://www.w3.org/2000/svg">
<rect width="182" height="66" rx="4" fill="#11577A"/>
<path d="M44.3864 34.0811C44.3473 29.7857 47.9464 27.696 48.111 27.5987C46.0727 24.6627 42.9133 24.2616 41.8031 24.2296C39.1496 23.9537 36.5757 25.7982 35.224 25.7982C33.8453 25.7982 31.7638 24.2563 29.5204 24.3016C26.6336 24.3455 23.9329 25.9968 22.4517 28.561C19.3948 33.7893 21.6746 41.4724 24.6033 45.6985C26.0683 47.7683 27.7802 50.0792 30.0209 49.9979C32.213 49.9086 33.0319 48.6172 35.6773 48.6172C38.2984 48.6172 39.0673 49.9979 41.3525 49.9459C43.7052 49.9086 45.1864 47.8669 46.6001 45.7785C48.2931 43.4062 48.973 41.07 49 40.95C48.9447 40.9314 44.4309 39.2295 44.3864 34.0811Z" fill="white"/>
<path d="M40.0696 21.4495C41.2486 19.9929 42.0553 18.0111 41.8314 16C40.1249 16.0746 37.9908 17.1661 36.7619 18.5908C35.6746 19.8463 34.7033 21.904 34.9542 23.8391C36.8711 23.9804 38.8393 22.8835 40.0696 21.4495Z" fill="white"/>
<path d="M66.7648 34.92H61.5648L60.5248 38H57.5648L62.8448 23.78H65.4448L70.7648 38H67.8048L66.7648 34.92ZM66.0448 32.72L64.1448 27.1L62.2848 32.72H66.0448ZM81.0522 32.82C81.0522 33.9 80.8855 34.8467 80.5522 35.66C80.2189 36.46 79.7389 37.0867 79.1122 37.54C78.4989 37.98 77.7789 38.2 76.9522 38.2C75.8589 38.2 74.9789 37.8267 74.3122 37.08V42.06H71.5922V27.44H74.1122L74.2122 28.5C74.8789 27.66 75.7855 27.24 76.9322 27.24C78.2122 27.24 79.2189 27.72 79.9522 28.68C80.6855 29.6267 81.0522 30.9467 81.0522 32.64V32.82ZM74.3122 34.98C74.6855 35.7133 75.3322 36.08 76.2522 36.08C76.9055 36.08 77.4122 35.8133 77.7722 35.28C78.1455 34.7333 78.3389 33.9333 78.3522 32.88V32.6C78.3522 31.56 78.1655 30.7667 77.7922 30.22C77.4322 29.66 76.9122 29.38 76.2322 29.38C75.3122 29.38 74.6722 29.74 74.3122 30.46V34.98ZM92.2827 32.82C92.2827 33.9 92.116 34.8467 91.7827 35.66C91.4493 36.46 90.9693 37.0867 90.3427 37.54C89.7293 37.98 89.0093 38.2 88.1827 38.2C87.0893 38.2 86.2093 37.8267 85.5427 37.08V42.06H82.8227V27.44H85.3427L85.4427 28.5C86.1093 27.66 87.016 27.24 88.1627 27.24C89.4427 27.24 90.4493 27.72 91.1827 28.68C91.916 29.6267 92.2827 30.9467 92.2827 32.64V32.82ZM85.5427 34.98C85.916 35.7133 86.5627 36.08 87.4827 36.08C88.136 36.08 88.6427 35.8133 89.0027 35.28C89.376 34.7333 89.5693 33.9333 89.5827 32.88V32.6C89.5827 31.56 89.396 30.7667 89.0227 30.22C88.6627 29.66 88.1427 29.38 87.4627 29.38C86.5427 29.38 85.9027 29.74 85.5427 30.46V34.98ZM96.9331 38H94.2131V23H96.9331V38ZM104.108 38.2C103.081 38.2 102.174 37.9867 101.388 37.56C100.601 37.12 99.9875 36.5067 99.5475 35.72C99.1208 34.9333 98.9075 34.02 98.9075 32.98V32.7C98.9075 31.66 99.1008 30.7267 99.4875 29.9C99.8875 29.0733 100.454 28.4267 101.188 27.96C101.934 27.48 102.808 27.24 103.808 27.24C105.248 27.24 106.374 27.7 107.188 28.62C108.014 29.54 108.428 30.8267 108.428 32.48V33.56H101.648V33.6C101.728 34.3467 102.001 34.9467 102.468 35.4C102.948 35.8533 103.554 36.08 104.288 36.08C105.368 36.08 106.228 35.6733 106.868 34.86L108.208 36.26C107.781 36.8733 107.208 37.3533 106.488 37.7C105.781 38.0333 104.988 38.2 104.108 38.2ZM105.768 31.72V31.52C105.741 30.8267 105.554 30.2933 105.208 29.92C104.874 29.5467 104.401 29.36 103.788 29.36C103.214 29.36 102.741 29.5667 102.368 29.98C101.994 30.38 101.761 30.96 101.668 31.72H105.768ZM121.811 34.28C121.811 33.96 121.751 33.68 121.631 33.44C121.511 33.2 121.318 32.9933 121.051 32.82C120.785 32.6333 120.478 32.4733 120.131 32.34C119.785 32.1933 119.351 32.04 118.831 31.88C117.911 31.5733 117.251 31.32 116.851 31.12C115.091 30.2533 114.211 29.0533 114.211 27.52C114.211 26.72 114.445 26.02 114.911 25.42C115.378 24.82 116.005 24.36 116.791 24.04C117.591 23.72 118.471 23.56 119.431 23.56C120.418 23.56 121.305 23.7467 122.091 24.12C122.891 24.48 123.511 24.9933 123.951 25.66C124.405 26.3267 124.631 27.0867 124.631 27.94H121.811C121.811 27.2467 121.598 26.7067 121.171 26.32C120.745 25.9333 120.145 25.74 119.371 25.74C118.651 25.74 118.078 25.9 117.651 26.22C117.225 26.54 117.011 26.9733 117.011 27.52C117.011 28.04 117.285 28.4733 117.831 28.82C118.098 29.0067 118.378 29.16 118.671 29.28C118.978 29.4 119.431 29.56 120.031 29.76C120.111 29.7867 120.405 29.8867 120.911 30.06C121.431 30.2333 121.918 30.4467 122.371 30.7C123.878 31.5533 124.631 32.74 124.631 34.26C124.631 35.4733 124.171 36.4333 123.251 37.14C122.331 37.8333 121.078 38.18 119.491 38.18C118.491 38.18 117.551 38.0067 116.671 37.66C115.805 37.3133 115.105 36.7933 114.571 36.1C114.038 35.4067 113.771 34.5667 113.771 33.58H116.591C116.591 34.38 116.838 34.9867 117.331 35.4C117.825 35.8133 118.545 36.02 119.491 36.02C120.225 36.02 120.791 35.8667 121.191 35.56C121.605 35.2533 121.811 34.8267 121.811 34.28ZM129.755 24.84V27.44H131.595V29.36H129.755V34.88C129.755 35.2933 129.835 35.5933 129.995 35.78C130.155 35.9533 130.442 36.04 130.855 36.04C131.042 36.04 131.322 36.0133 131.695 35.96V37.96C131.162 38.12 130.608 38.2 130.035 38.2C128.048 38.2 127.055 37.1733 127.055 35.12V29.36H125.475V27.44H127.055V24.84H129.755ZM132.5 32.62C132.473 31.6333 132.653 30.7333 133.04 29.92C133.427 29.1067 133.993 28.46 134.74 27.98C135.5 27.4867 136.413 27.24 137.48 27.24C138.48 27.24 139.353 27.4667 140.1 27.92C140.86 28.36 141.44 28.9933 141.84 29.82C142.253 30.6333 142.46 31.5933 142.46 32.7V32.82C142.46 33.9 142.253 34.8467 141.84 35.66C141.427 36.4733 140.847 37.1 140.1 37.54C139.353 37.98 138.487 38.2 137.5 38.2C136.527 38.2 135.667 37.9867 134.92 37.56C134.173 37.1333 133.587 36.5333 133.16 35.76C132.747 34.9733 132.527 34.0533 132.5 33V32.62ZM135.2 32.82C135.2 33.8733 135.4 34.68 135.8 35.24C136.2 35.8 136.767 36.08 137.5 36.08C138.22 36.08 138.773 35.8067 139.16 35.26C139.56 34.7133 139.767 33.9267 139.78 32.9V32.62C139.78 31.5933 139.58 30.7933 139.18 30.22C138.78 29.6467 138.213 29.36 137.48 29.36C136.787 29.36 136.24 29.62 135.84 30.14C135.453 30.66 135.24 31.4133 135.2 32.4V32.82ZM150.128 29.88C149.942 29.8267 149.608 29.8 149.128 29.8C148.035 29.8 147.315 30.2 146.968 31V38H144.248V27.44H146.828L146.888 28.74C147.475 27.74 148.275 27.24 149.288 27.24C149.635 27.24 149.928 27.28 150.168 27.36L150.128 29.88ZM156.158 38.2C155.132 38.2 154.225 37.9867 153.438 37.56C152.652 37.12 152.038 36.5067 151.598 35.72C151.172 34.9333 150.958 34.02 150.958 32.98V32.7C150.958 31.66 151.152 30.7267 151.538 29.9C151.938 29.0733 152.505 28.4267 153.238 27.96C153.985 27.48 154.858 27.24 155.858 27.24C157.298 27.24 158.425 27.7 159.238 28.62C160.065 29.54 160.478 30.8267 160.478 32.48V33.56H153.698V33.6C153.778 34.3467 154.052 34.9467 154.518 35.4C154.998 35.8533 155.605 36.08 156.338 36.08C157.418 36.08 158.278 35.6733 158.918 34.86L160.258 36.26C159.832 36.8733 159.258 37.3533 158.538 37.7C157.832 38.0333 157.038 38.2 156.158 38.2ZM157.818 31.72V31.52C157.792 30.8267 157.605 30.2933 157.258 29.92C156.925 29.5467 156.452 29.36 155.838 29.36C155.265 29.36 154.792 29.5667 154.418 29.98C154.045 30.38 153.812 30.96 153.718 31.72H157.818Z" fill="white"/>
</svg>
