<svg width="264" height="56" viewBox="0 0 264 56" fill="none" xmlns="http://www.w3.org/2000/svg">
<path d="M21.057 7.18066C21.0663 7.39186 21.0663 7.59346 21.0663 7.80466C21.0755 14.2079 16.3711 21.5999 7.76781 21.5999C5.23036 21.5999 2.73921 20.8415 0.599976 19.4207C0.970406 19.4687 1.34084 19.4879 1.71127 19.4879C3.81346 19.4879 5.86009 18.7583 7.51777 17.4047C5.51744 17.3663 3.7579 16.0127 3.14669 14.0351C3.8505 14.1791 4.57284 14.1503 5.25814 13.9487C3.08186 13.5071 1.51679 11.5199 1.50753 9.20626C1.50753 9.18706 1.50753 9.16786 1.50753 9.14866C2.15578 9.52306 2.88738 9.73426 3.62825 9.75346C1.58162 8.33266 0.942624 5.50065 2.18357 3.28304C4.56358 6.31665 8.06415 8.15026 11.824 8.35186C11.4443 6.67185 11.9629 4.90545 13.1761 3.71505C15.056 1.88144 18.0195 1.97744 19.7975 3.92625C20.844 3.71505 21.8534 3.31184 22.7702 2.74544C22.4183 3.86865 21.6867 4.81905 20.7144 5.42385C21.6404 5.30865 22.548 5.04945 23.4 4.66545C22.7702 5.64465 21.9738 6.48945 21.057 7.18066Z" fill="#1D9BF0"/>
<rect x="48" width="24" height="24" rx="12" fill="#1877F2"/>
<path d="M64.6711 15.4688L65.2031 12H61.875V9.75C61.875 8.80078 62.3391 7.875 63.8297 7.875H65.3438V4.92188C65.3438 4.92188 63.9703 4.6875 62.6578 4.6875C59.9156 4.6875 58.125 6.34922 58.125 9.35625V12H55.0781V15.4688H58.125V23.8547C58.7367 23.9508 59.3625 24 60 24C60.6375 24 61.2633 23.9508 61.875 23.8547V15.4688H64.6711Z" fill="white"/>
<path d="M119.933 7.05204C119.875 5.77422 119.669 4.89992 119.376 4.13611C119.069 3.34828 118.661 2.67574 117.993 2.01281C117.326 1.34988 116.659 0.931946 115.871 0.629304C115.108 0.331465 114.234 0.129704 112.957 0.0720576C111.675 0.0144115 111.267 0 108.012 0C104.752 0 104.344 0.0144115 103.067 0.0720576C101.79 0.129704 100.916 0.336269 100.153 0.629304C99.3607 0.93675 98.6885 1.34508 98.026 2.01281C97.3635 2.68054 96.9458 3.34828 96.6433 4.13611C96.3505 4.89992 96.144 5.77422 96.0864 7.05204C96.0288 8.33467 96.0144 8.743 96.0144 12C96.0144 15.2618 96.0288 15.6701 96.0864 16.948C96.144 18.2258 96.3505 19.1001 96.6433 19.8639C96.9506 20.6517 97.3587 21.3243 98.026 21.9872C98.6885 22.6549 99.3607 23.0681 100.148 23.3707C100.911 23.6685 101.785 23.8703 103.062 23.9279C104.344 23.9856 104.752 24 108.007 24C111.267 24 111.675 23.9856 112.952 23.9279C114.229 23.8703 115.103 23.6637 115.866 23.3707C116.654 23.0633 117.326 22.6549 117.988 21.9872C118.651 21.3195 119.069 20.6517 119.371 19.8639C119.669 19.1001 119.87 18.2258 119.928 16.948C119.986 15.6653 120 15.257 120 12C120 8.743 119.99 8.32986 119.933 7.05204ZM117.777 16.8519C117.724 18.024 117.528 18.6629 117.364 19.0809C117.148 19.6381 116.884 20.0416 116.462 20.4644C116.039 20.8871 115.641 21.1417 115.079 21.3675C114.657 21.5308 114.018 21.7278 112.851 21.7806C111.589 21.8383 111.209 21.8527 108.002 21.8527C104.795 21.8527 104.416 21.8383 103.153 21.7806C101.982 21.7278 101.343 21.5308 100.926 21.3675C100.369 21.1513 99.9656 20.8871 99.5431 20.4644C99.1206 20.0416 98.8662 19.6429 98.6405 19.0809C98.4773 18.6581 98.2805 18.0192 98.2276 16.8519C98.17 15.5885 98.1556 15.209 98.1556 12C98.1556 8.79103 98.17 8.41153 98.2276 7.14812C98.2805 5.97598 98.4773 5.33707 98.6405 4.91914C98.8566 4.36189 99.1206 3.95837 99.5431 3.53563C99.9656 3.11289 100.364 2.85829 100.926 2.63251C101.348 2.46918 101.987 2.27222 103.153 2.21938C104.416 2.16173 104.795 2.14732 108.002 2.14732C111.209 2.14732 111.589 2.16173 112.851 2.21938C114.023 2.27222 114.661 2.46918 115.079 2.63251C115.636 2.84868 116.039 3.11289 116.462 3.53563C116.884 3.95837 117.139 4.35709 117.364 4.91914C117.528 5.34187 117.724 5.98079 117.777 7.14812C117.835 8.41153 117.849 8.79103 117.849 12C117.849 15.209 117.83 15.5885 117.777 16.8519Z" fill="url(#paint0_linear_1137_1438)"/>
<path d="M108.002 5.83179C104.594 5.83179 101.838 8.594 101.838 11.9999C101.838 15.4107 104.599 18.1681 108.002 18.1681C111.406 18.1681 114.167 15.401 114.167 11.9999C114.167 8.58919 111.411 5.83179 108.002 5.83179ZM108.002 16.0015C105.794 16.0015 104.003 14.2097 104.003 11.9999C104.003 9.79015 105.794 7.99832 108.002 7.99832C110.211 7.99832 112.002 9.79015 112.002 11.9999C112.002 14.2097 110.211 16.0015 108.002 16.0015Z" fill="url(#paint1_linear_1137_1438)"/>
<path d="M114.407 7.03294C115.202 7.03294 115.847 6.38771 115.847 5.59179C115.847 4.79586 115.202 4.15063 114.407 4.15063C113.611 4.15063 112.967 4.79586 112.967 5.59179C112.967 6.38771 113.611 7.03294 114.407 7.03294Z" fill="#BC30A0"/>
<path d="M96 12C96 15.2618 96.0144 15.6701 96.072 16.948C96.1296 18.2258 96.3361 19.1001 96.6289 19.8639C96.9362 20.6517 97.3443 21.3243 98.0116 21.9872C98.6741 22.6501 99.3463 23.0681 100.134 23.3707C100.897 23.6685 101.771 23.8703 103.048 23.9279C104.33 23.9856 104.738 24 107.993 24C111.253 24 111.661 23.9856 112.938 23.9279C114.215 23.8703 115.089 23.6637 115.852 23.3707C116.639 23.0633 117.311 22.6549 117.974 21.9872C118.637 21.3243 119.054 20.6517 119.357 19.8639C119.654 19.1001 119.856 18.2258 119.914 16.948C119.971 15.6653 119.986 15.257 119.986 12C119.986 8.73819 119.971 8.32986 119.914 7.05204C119.856 5.77422 119.65 4.89992 119.357 4.13611C119.049 3.34828 118.641 2.67574 117.974 2.01281C117.316 1.34508 116.644 0.931946 115.857 0.629304C115.093 0.331465 114.22 0.129704 112.943 0.0720576C111.661 0.0144115 111.253 0 107.998 0C104.738 0 104.33 0.0144115 103.053 0.0720576C101.776 0.129704 100.902 0.336269 100.138 0.629304C99.3511 0.93675 98.6789 1.34508 98.0164 2.01281C97.3539 2.68054 96.9362 3.34828 96.6337 4.13611C96.3361 4.89992 96.1296 5.77422 96.072 7.05204C96.0144 8.32986 96 8.73819 96 12ZM98.1652 12C98.1652 8.79584 98.1796 8.41153 98.2372 7.14812C98.2901 5.97598 98.4869 5.33707 98.6501 4.91914C98.8662 4.36189 99.1302 3.95837 99.5527 3.53563C99.9752 3.11289 100.374 2.85829 100.935 2.63251C101.358 2.46918 101.996 2.27222 103.163 2.21938C104.426 2.16173 104.805 2.14732 108.012 2.14732C111.219 2.14732 111.598 2.16173 112.861 2.21938C114.032 2.27222 114.671 2.46918 115.089 2.63251C115.646 2.84868 116.049 3.11289 116.471 3.53563C116.894 3.95837 117.148 4.35709 117.374 4.91914C117.537 5.34187 117.734 5.98079 117.787 7.14812C117.844 8.41153 117.859 8.79103 117.859 12C117.859 15.209 117.844 15.5885 117.787 16.8519C117.734 18.024 117.537 18.6629 117.374 19.0809C117.158 19.6381 116.894 20.0416 116.471 20.4644C116.049 20.8871 115.65 21.1417 115.089 21.3675C114.666 21.5308 114.028 21.7278 112.861 21.7806C111.598 21.8383 111.219 21.8527 108.012 21.8527C104.805 21.8527 104.426 21.8383 103.163 21.7806C101.992 21.7278 101.353 21.5308 100.935 21.3675C100.378 21.1513 99.9752 20.8871 99.5527 20.4644C99.1302 20.0416 98.8758 19.6429 98.6501 19.0809C98.4869 18.6581 98.2901 18.0192 98.2372 16.8519C98.1748 15.5885 98.1652 15.2042 98.1652 12Z" fill="url(#paint2_linear_1137_1438)"/>
<path d="M167.506 6.22941C167.229 5.20141 166.418 4.39087 165.39 4.1141C163.512 3.6001 156 3.6001 156 3.6001C156 3.6001 148.488 3.6001 146.61 4.09433C145.601 4.3711 144.771 5.20141 144.494 6.22941C144 8.10749 144 12.002 144 12.002C144 12.002 144 15.9164 144.494 17.7747C144.771 18.8027 145.582 19.6132 146.61 19.89C148.507 20.404 156 20.404 156 20.404C156 20.404 163.512 20.404 165.39 19.9097C166.418 19.633 167.229 18.8224 167.506 17.7944C168 15.9164 168 12.0218 168 12.0218C168 12.0218 168.02 8.10749 167.506 6.22941Z" fill="#FF0000"/>
<path d="M153.608 15.6001L159.855 12.0021L153.608 8.40405V15.6001Z" fill="white"/>
<g clip-path="url(#clip0_1137_1438)">
<path d="M192 3.20169C192 2.42947 192.27 1.79241 192.811 1.29049C193.351 0.788555 194.054 0.537598 194.919 0.537598C195.768 0.537598 196.456 0.784686 196.981 1.27891C197.521 1.78856 197.792 2.45264 197.792 3.27119C197.792 4.0125 197.529 4.63025 197.004 5.12447C196.463 5.63412 195.753 5.88895 194.873 5.88895H194.849C194 5.88895 193.313 5.63412 192.788 5.12447C192.263 4.61482 192 3.97388 192 3.20169ZM192.301 23.472V7.99706H197.444V23.472H192.301ZM200.293 23.472H205.436V14.831C205.436 14.2905 205.498 13.8735 205.622 13.5801C205.838 13.055 206.166 12.6109 206.606 12.248C207.046 11.8851 207.598 11.7036 208.263 11.7036C209.992 11.7036 210.857 12.8696 210.857 15.2017V23.472H216V14.5994C216 12.3137 215.459 10.5801 214.378 9.3986C213.297 8.21713 211.869 7.6264 210.093 7.6264C208.1 7.6264 206.548 8.48354 205.436 10.1978V10.2442H205.413L205.436 10.1978V7.99706H200.293C200.324 8.49126 200.34 10.0279 200.34 12.6071C200.34 15.1862 200.324 18.8079 200.293 23.472Z" fill="#0A66C2"/>
</g>
<rect x="240" width="24" height="24" rx="12" fill="url(#paint3_linear_1137_1438)"/>
<path fill-rule="evenodd" clip-rule="evenodd" d="M245.432 11.8734C248.93 10.3493 251.263 9.34452 252.43 8.85905C255.763 7.47294 256.455 7.23216 256.906 7.22421C257.006 7.22246 257.228 7.24706 257.371 7.36372C257.493 7.46223 257.526 7.5953 257.542 7.6887C257.558 7.78209 257.578 7.99485 257.562 8.1611C257.382 10.0586 256.6 14.6633 256.203 16.7885C256.035 17.6877 255.703 17.9892 255.383 18.0188C254.686 18.0829 254.157 17.5582 253.482 17.1158C252.426 16.4235 251.829 15.9925 250.804 15.3169C249.619 14.5362 250.387 14.107 251.062 13.4058C251.239 13.2222 254.309 10.4295 254.369 10.1761C254.376 10.1444 254.383 10.0263 254.313 9.96397C254.243 9.9016 254.139 9.92293 254.064 9.93989C253.959 9.96393 252.271 11.0791 249.003 13.2855C248.524 13.6143 248.09 13.7746 247.701 13.7662C247.273 13.7569 246.449 13.5239 245.836 13.3247C245.085 13.0804 244.487 12.9513 244.539 12.5364C244.566 12.3203 244.864 12.0993 245.432 11.8734Z" fill="white"/>
<path d="M72.6234 48H68.6874V36.624H72.3994C74.8794 36.624 76.1114 37.664 76.1114 39.664C76.1114 40.704 75.4714 41.568 74.4314 42.016C75.6634 42.352 76.4154 43.376 76.4154 44.72C76.4154 46.768 75.0394 48 72.6234 48ZM70.1754 46.768H72.6554C74.0474 46.768 74.9114 46 74.9114 44.736C74.9114 43.36 74.1754 42.672 72.6874 42.672H70.1754V46.768ZM70.1754 41.472H72.4474C73.7434 41.472 74.6074 40.784 74.6074 39.648C74.6074 38.384 73.8874 37.856 72.3994 37.856H70.1754V41.472ZM80.0001 39.552V48H78.5441V39.552H80.0001ZM78.4321 37.312C78.4321 36.848 78.7201 36.464 79.2801 36.464C79.8401 36.464 80.1441 36.848 80.1441 37.312C80.1441 37.776 79.8401 38.128 79.2801 38.128C78.7201 38.128 78.4321 37.776 78.4321 37.312ZM83.8908 36V48H82.4348V36H83.8908ZM87.7814 39.552V48H86.3254V39.552H87.7814ZM86.2134 37.312C86.2134 36.848 86.5014 36.464 87.0614 36.464C87.6214 36.464 87.9254 36.848 87.9254 37.312C87.9254 37.776 87.6214 38.128 87.0614 38.128C86.5014 38.128 86.2134 37.776 86.2134 37.312ZM90.616 37.504H92.056V39.552H93.64V40.672H92.056V45.904C92.056 46.592 92.296 46.928 92.984 46.928C93.16 46.928 93.384 46.896 93.672 46.832V48C93.288 48.112 92.92 48.16 92.568 48.16C91.272 48.16 90.616 47.36 90.616 45.904V40.672H89.064V39.552H90.616V37.504ZM94.7509 43.696C94.7509 41.248 96.2389 39.392 98.5909 39.392C100.895 39.392 102.447 41.12 102.447 43.76V43.872C102.447 46.464 100.831 48.16 98.6069 48.16C96.3189 48.16 94.7509 46.416 94.7509 43.792V43.696ZM96.2069 43.872C96.1909 45.744 97.1509 46.976 98.6069 46.976C100.047 46.976 100.991 45.824 101.007 43.824V43.696C101.023 41.84 100.063 40.576 98.5909 40.576C97.1989 40.576 96.2389 41.712 96.2069 43.744V43.872ZM104.116 44.288C104.164 40.64 106.66 36.832 110.772 36.832C114.724 36.832 116.964 39.696 116.772 44.096C116.676 46.624 115.364 48.176 113.572 48.176C112.74 48.176 112.02 47.968 111.716 47.088C111.172 47.776 110.5 48.144 109.684 48.16C108.308 48.176 107.284 47.408 107.508 44.752C107.716 42.336 109.188 40.288 110.884 40.288C112.084 40.288 112.964 40.88 113.172 41.152L112.82 45.28C112.676 47.024 112.932 47.248 113.732 47.248C114.948 47.248 115.7 45.968 115.764 44.096C115.892 40.16 114.244 37.872 110.74 37.872C107.22 37.872 105.38 40.928 105.236 44.288C105.076 48.288 106.98 50.576 110.212 50.576C111.06 50.576 112.196 50.32 112.804 49.968L113.092 50.864C112.372 51.28 111.252 51.52 110.244 51.536C106.212 51.552 104.052 48.784 104.116 44.288ZM108.756 44.752C108.612 46.24 108.868 47.04 109.956 47.056C110.676 47.072 111.188 46.528 111.588 45.456V45.44L111.94 41.52C111.684 41.312 111.508 41.264 110.98 41.264C109.796 41.296 108.964 42.576 108.756 44.752ZM127.556 46.512C126.788 47.6 125.38 48.16 123.54 48.16C120.676 48.16 118.836 46.064 118.804 42.864V41.872C118.804 38.432 120.468 36.464 123.364 36.464C125.748 36.464 127.236 37.728 127.556 39.968H126.068C125.78 38.448 124.884 37.696 123.38 37.696C121.348 37.696 120.308 39.152 120.308 41.824V42.752C120.308 45.312 121.556 46.928 123.54 46.928C124.676 46.928 125.508 46.704 126.068 46.112V43.552H123.444V42.336H127.556V46.512ZM129.822 39.552H131.182L131.23 40.48C131.854 39.76 132.686 39.392 133.742 39.392C134.91 39.392 135.71 39.84 136.142 40.752C136.718 39.936 137.614 39.392 138.846 39.392C140.702 39.392 141.678 40.368 141.678 42.336V48H140.222V42.416C140.222 41.216 139.742 40.624 138.414 40.624C137.934 40.624 137.502 40.768 137.182 41.024C136.782 41.328 136.526 41.808 136.462 42.384V48H135.022V42.464C135.022 41.232 134.414 40.624 133.214 40.624C132.734 40.624 132.334 40.72 132.014 40.928C131.678 41.136 131.438 41.424 131.262 41.824V48H129.822V39.552ZM149.07 48C148.99 47.824 148.91 47.536 148.862 47.104C148.19 47.808 147.39 48.16 146.446 48.16C144.782 48.16 143.598 47.088 143.598 45.664C143.598 43.888 145.006 42.88 147.422 42.88H148.83V42.208C148.83 41.2 148.222 40.56 147.054 40.56C146.014 40.56 145.23 41.136 145.23 41.888H143.774C143.774 40.656 145.166 39.392 147.134 39.392C149.07 39.392 150.238 40.416 150.286 42.128V46.016C150.286 46.8 150.382 47.408 150.574 47.872V48H149.07ZM145.054 45.456C145.054 46.352 145.71 46.896 146.67 46.896C147.566 46.896 148.462 46.384 148.83 45.632V43.904H147.71C145.934 43.904 145.054 44.416 145.054 45.456ZM154.125 39.552V48H152.669V39.552H154.125ZM152.557 37.312C152.557 36.848 152.845 36.464 153.405 36.464C153.965 36.464 154.269 36.848 154.269 37.312C154.269 37.776 153.965 38.128 153.405 38.128C152.845 38.128 152.557 37.776 152.557 37.312ZM158.016 36V48H156.56V36H158.016ZM161.586 47.84C161.058 47.84 160.626 47.408 160.626 46.88C160.626 46.352 161.058 45.92 161.586 45.92C162.114 45.92 162.546 46.352 162.546 46.88C162.546 47.408 162.114 47.84 161.586 47.84ZM173.618 44.384C173.345 46.8 171.794 48.16 169.314 48.16C166.626 48.16 164.866 46.064 164.866 42.848V41.744C164.866 38.448 166.77 36.464 169.442 36.464C171.874 36.464 173.378 37.904 173.618 40.288H172.114C171.858 38.48 170.994 37.696 169.442 37.696C167.522 37.696 166.37 39.168 166.37 41.792V42.896C166.37 45.344 167.458 46.928 169.314 46.928C170.978 46.928 171.842 46.256 172.114 44.384H173.618ZM175.063 43.696C175.063 41.248 176.551 39.392 178.903 39.392C181.207 39.392 182.759 41.12 182.759 43.76V43.872C182.759 46.464 181.143 48.16 178.919 48.16C176.631 48.16 175.063 46.416 175.063 43.792V43.696ZM176.519 43.872C176.503 45.744 177.463 46.976 178.919 46.976C180.359 46.976 181.303 45.824 181.319 43.824V43.696C181.335 41.84 180.375 40.576 178.903 40.576C177.511 40.576 176.551 41.712 176.519 43.744V43.872ZM184.572 39.552H185.932L185.98 40.48C186.604 39.76 187.436 39.392 188.492 39.392C189.66 39.392 190.46 39.84 190.892 40.752C191.468 39.936 192.364 39.392 193.596 39.392C195.452 39.392 196.428 40.368 196.428 42.336V48H194.972V42.416C194.972 41.216 194.492 40.624 193.164 40.624C192.684 40.624 192.252 40.768 191.932 41.024C191.532 41.328 191.276 41.808 191.212 42.384V48H189.772V42.464C189.772 41.232 189.164 40.624 187.964 40.624C187.484 40.624 187.084 40.72 186.764 40.928C186.428 41.136 186.188 41.424 186.012 41.824V48H184.572V39.552Z" fill="#0077DB"/>
<defs>
<linearGradient id="paint0_linear_1137_1438" x1="116.295" y1="1.8352" x2="98.933" y2="23.1076" gradientUnits="userSpaceOnUse">
<stop stop-color="#AE3DAE"/>
<stop offset="0.0468721" stop-color="#B23BA6"/>
<stop offset="0.1216" stop-color="#BD368E"/>
<stop offset="0.2148" stop-color="#CE2E69"/>
<stop offset="0.3216" stop-color="#E62335"/>
<stop offset="0.418" stop-color="#FF1800"/>
</linearGradient>
<linearGradient id="paint1_linear_1137_1438" x1="110.942" y1="7.05278" x2="104.635" y2="17.6513" gradientUnits="userSpaceOnUse">
<stop stop-color="#E12F6A"/>
<stop offset="0.1705" stop-color="#EA3751"/>
<stop offset="0.3563" stop-color="#F13D3E"/>
<stop offset="0.5467" stop-color="#F64133"/>
<stop offset="0.7469" stop-color="#F7422F"/>
<stop offset="0.7946" stop-color="#F74C2F"/>
<stop offset="0.8743" stop-color="#F7652F"/>
<stop offset="0.9757" stop-color="#F78F2E"/>
<stop offset="1" stop-color="#F79A2E"/>
</linearGradient>
<linearGradient id="paint2_linear_1137_1438" x1="113.438" y1="-0.988031" x2="102.814" y2="24.3363" gradientUnits="userSpaceOnUse">
<stop offset="0.2341" stop-color="#9E35A5" stop-opacity="0"/>
<stop offset="0.4512" stop-color="#D42F7F" stop-opacity="0.5"/>
<stop offset="0.7524" stop-color="#F7772E"/>
<stop offset="0.9624" stop-color="#FEF780"/>
</linearGradient>
<linearGradient id="paint3_linear_1137_1438" x1="252" y1="0" x2="252" y2="23.822" gradientUnits="userSpaceOnUse">
<stop stop-color="#2AABEE"/>
<stop offset="1" stop-color="#229ED9"/>
</linearGradient>
<clipPath id="clip0_1137_1438">
<rect width="24" height="24" fill="white" transform="translate(192)"/>
</clipPath>
</defs>
</svg>
