<svg width="182" height="66" viewBox="0 0 182 66" fill="none" xmlns="http://www.w3.org/2000/svg">
<rect width="182" height="66" rx="4" fill="#11577A"/>
<path d="M21.482 21.3705C21.1767 21.6574 21 22.1041 21 22.6827V43.318C21 43.8965 21.1767 44.3432 21.482 44.6301L21.5573 44.6931L34.4371 33.1344V32.8615L21.5573 21.3029L21.482 21.3705Z" fill="url(#paint0_linear_1122_685)"/>
<path d="M38.726 36.9893L34.4375 33.1344V32.8615L38.7312 29.0067L38.8273 29.0568L43.9122 31.6543C45.3634 32.3915 45.3634 33.6045 43.9122 34.3463L38.8273 36.9391L38.726 36.9893Z" fill="url(#paint1_linear_1122_685)"/>
<path d="M38.8274 36.9392L34.4376 32.998L21.4824 44.6302C21.9644 45.0851 22.7504 45.1399 23.6442 44.685L38.8274 36.9392Z" fill="url(#paint2_linear_1122_685)"/>
<path d="M38.8274 29.0569L23.6442 21.3111C22.7504 20.8609 21.9644 20.9157 21.4824 21.3706L34.4376 32.998L38.8274 29.0569Z" fill="url(#paint3_linear_1122_685)"/>
<path d="M73.3773 32.88V38H70.5973V23.78H76.0773C77.144 23.78 78.0773 23.98 78.8773 24.38C79.6907 24.7667 80.3107 25.3133 80.7373 26.02C81.164 26.7133 81.3773 27.5067 81.3773 28.4C81.3773 29.8 80.904 30.9 79.9573 31.7C79.024 32.4867 77.7173 32.88 76.0373 32.88H73.3773ZM76.0773 30.68C76.8773 30.68 77.484 30.4867 77.8973 30.1C78.324 29.7133 78.5373 29.1533 78.5373 28.42C78.5373 27.6867 78.324 27.1 77.8973 26.66C77.4707 26.22 76.884 25.9933 76.1373 25.98H73.3773V30.68H76.0773ZM86.1089 38H83.3889V23H86.1089V38ZM94.6433 38C94.5366 37.76 94.4433 37.42 94.3633 36.98C93.6699 37.7933 92.7566 38.2 91.6233 38.2C90.9566 38.2 90.3499 38.0667 89.8033 37.8C89.2566 37.52 88.8233 37.14 88.5033 36.66C88.1966 36.1667 88.0433 35.6267 88.0433 35.04C88.0433 33.92 88.4633 33.06 89.3033 32.46C90.1566 31.86 91.3699 31.56 92.9433 31.56H94.2633V30.9C94.2633 30.3533 94.1233 29.9333 93.8433 29.64C93.5633 29.3467 93.1499 29.2 92.6033 29.2C92.1099 29.2 91.7166 29.3267 91.4233 29.58C91.1299 29.82 90.9833 30.1467 90.9833 30.56H88.3033C88.3033 29.9467 88.4899 29.3867 88.8633 28.88C89.2499 28.3733 89.7766 27.9733 90.4433 27.68C91.1233 27.3867 91.8899 27.24 92.7433 27.24C94.0366 27.24 95.0566 27.56 95.8033 28.2C96.5499 28.8267 96.9366 29.7 96.9633 30.82V35.56C96.9633 36.52 97.0966 37.28 97.3633 37.84V38H94.6433ZM90.7633 34.84C90.7633 35.24 90.8966 35.56 91.1633 35.8C91.4299 36.04 91.7833 36.16 92.2233 36.16C92.6633 36.16 93.0699 36.0533 93.4433 35.84C93.8166 35.6133 94.0899 35.34 94.2633 35.02V33.14H93.1233C91.5499 33.14 90.7633 33.7067 90.7633 34.84ZM102.969 34.18L103.089 33.74L105.009 27.44H107.889L103.609 39.72L103.429 40.16C102.816 41.56 101.776 42.26 100.309 42.26C99.9626 42.2467 99.5559 42.1933 99.0892 42.1V40.08C99.1826 40.0933 99.3292 40.1 99.5292 40.1C100.049 40.1133 100.449 40.0267 100.729 39.84C101.009 39.6533 101.229 39.3267 101.389 38.86L101.729 38.02L98.0092 27.44H100.909L102.969 34.18ZM120.811 34.28C120.811 33.96 120.751 33.68 120.631 33.44C120.511 33.2 120.318 32.9933 120.051 32.82C119.785 32.6333 119.478 32.4733 119.131 32.34C118.785 32.1933 118.351 32.04 117.831 31.88C116.911 31.5733 116.251 31.32 115.851 31.12C114.091 30.2533 113.211 29.0533 113.211 27.52C113.211 26.72 113.445 26.02 113.911 25.42C114.378 24.82 115.005 24.36 115.791 24.04C116.591 23.72 117.471 23.56 118.431 23.56C119.418 23.56 120.305 23.7467 121.091 24.12C121.891 24.48 122.511 24.9933 122.951 25.66C123.405 26.3267 123.631 27.0867 123.631 27.94H120.811C120.811 27.2467 120.598 26.7067 120.171 26.32C119.745 25.9333 119.145 25.74 118.371 25.74C117.651 25.74 117.078 25.9 116.651 26.22C116.225 26.54 116.011 26.9733 116.011 27.52C116.011 28.04 116.285 28.4733 116.831 28.82C117.098 29.0067 117.378 29.16 117.671 29.28C117.978 29.4 118.431 29.56 119.031 29.76C119.111 29.7867 119.405 29.8867 119.911 30.06C120.431 30.2333 120.918 30.4467 121.371 30.7C122.878 31.5533 123.631 32.74 123.631 34.26C123.631 35.4733 123.171 36.4333 122.251 37.14C121.331 37.8333 120.078 38.18 118.491 38.18C117.491 38.18 116.551 38.0067 115.671 37.66C114.805 37.3133 114.105 36.7933 113.571 36.1C113.038 35.4067 112.771 34.5667 112.771 33.58H115.591C115.591 34.38 115.838 34.9867 116.331 35.4C116.825 35.8133 117.545 36.02 118.491 36.02C119.225 36.02 119.791 35.8667 120.191 35.56C120.605 35.2533 120.811 34.8267 120.811 34.28ZM128.755 24.84V27.44H130.595V29.36H128.755V34.88C128.755 35.2933 128.835 35.5933 128.995 35.78C129.155 35.9533 129.442 36.04 129.855 36.04C130.042 36.04 130.322 36.0133 130.695 35.96V37.96C130.162 38.12 129.608 38.2 129.035 38.2C127.048 38.2 126.055 37.1733 126.055 35.12V29.36H124.475V27.44H126.055V24.84H128.755ZM131.5 32.62C131.473 31.6333 131.653 30.7333 132.04 29.92C132.427 29.1067 132.993 28.46 133.74 27.98C134.5 27.4867 135.413 27.24 136.48 27.24C137.48 27.24 138.353 27.4667 139.1 27.92C139.86 28.36 140.44 28.9933 140.84 29.82C141.253 30.6333 141.46 31.5933 141.46 32.7V32.82C141.46 33.9 141.253 34.8467 140.84 35.66C140.427 36.4733 139.847 37.1 139.1 37.54C138.353 37.98 137.487 38.2 136.5 38.2C135.527 38.2 134.667 37.9867 133.92 37.56C133.173 37.1333 132.587 36.5333 132.16 35.76C131.747 34.9733 131.527 34.0533 131.5 33V32.62ZM134.2 32.82C134.2 33.8733 134.4 34.68 134.8 35.24C135.2 35.8 135.767 36.08 136.5 36.08C137.22 36.08 137.773 35.8067 138.16 35.26C138.56 34.7133 138.767 33.9267 138.78 32.9V32.62C138.78 31.5933 138.58 30.7933 138.18 30.22C137.78 29.6467 137.213 29.36 136.48 29.36C135.787 29.36 135.24 29.62 134.84 30.14C134.453 30.66 134.24 31.4133 134.2 32.4V32.82ZM149.128 29.88C148.942 29.8267 148.608 29.8 148.128 29.8C147.035 29.8 146.315 30.2 145.968 31V38H143.248V27.44H145.828L145.888 28.74C146.475 27.74 147.275 27.24 148.288 27.24C148.635 27.24 148.928 27.28 149.168 27.36L149.128 29.88ZM155.158 38.2C154.132 38.2 153.225 37.9867 152.438 37.56C151.652 37.12 151.038 36.5067 150.598 35.72C150.172 34.9333 149.958 34.02 149.958 32.98V32.7C149.958 31.66 150.152 30.7267 150.538 29.9C150.938 29.0733 151.505 28.4267 152.238 27.96C152.985 27.48 153.858 27.24 154.858 27.24C156.298 27.24 157.425 27.7 158.238 28.62C159.065 29.54 159.478 30.8267 159.478 32.48V33.56H152.698V33.6C152.778 34.3467 153.052 34.9467 153.518 35.4C153.998 35.8533 154.605 36.08 155.338 36.08C156.418 36.08 157.278 35.6733 157.918 34.86L159.258 36.26C158.832 36.8733 158.258 37.3533 157.538 37.7C156.832 38.0333 156.038 38.2 155.158 38.2ZM156.818 31.72V31.52C156.792 30.8267 156.605 30.2933 156.258 29.92C155.925 29.5467 155.452 29.36 154.838 29.36C154.265 29.36 153.792 29.5667 153.418 29.98C153.045 30.38 152.812 30.96 152.718 31.72H156.818Z" fill="white"/>
<defs>
<linearGradient id="paint0_linear_1122_685" x1="33.2936" y1="43.5329" x2="17.7246" y2="26.1914" gradientUnits="userSpaceOnUse">
<stop stop-color="#00A0FF"/>
<stop offset="0.0066" stop-color="#00A1FF"/>
<stop offset="0.2601" stop-color="#00BEFF"/>
<stop offset="0.5122" stop-color="#00D2FF"/>
<stop offset="0.7604" stop-color="#00DFFF"/>
<stop offset="1" stop-color="#00E3FF"/>
</linearGradient>
<linearGradient id="paint1_linear_1122_685" x1="45.8019" y1="32.9967" x2="20.6535" y2="32.9967" gradientUnits="userSpaceOnUse">
<stop stop-color="#FFE000"/>
<stop offset="0.4087" stop-color="#FFBD00"/>
<stop offset="0.7754" stop-color="#FFA500"/>
<stop offset="1" stop-color="#FF9C00"/>
</linearGradient>
<linearGradient id="paint2_linear_1122_685" x1="36.4403" y1="30.8556" x2="15.3276" y2="7.3392" gradientUnits="userSpaceOnUse">
<stop stop-color="#FF3A44"/>
<stop offset="1" stop-color="#C31162"/>
</linearGradient>
<linearGradient id="paint3_linear_1122_685" x1="18.2213" y1="51.4955" x2="27.6491" y2="40.9944" gradientUnits="userSpaceOnUse">
<stop stop-color="#32A071"/>
<stop offset="0.0685" stop-color="#2DA771"/>
<stop offset="0.4762" stop-color="#15CF74"/>
<stop offset="0.8009" stop-color="#06E775"/>
<stop offset="1" stop-color="#00F076"/>
</linearGradient>
</defs>
</svg>
