<svg width="66" height="82" viewBox="0 0 66 82" fill="none" xmlns="http://www.w3.org/2000/svg">
<rect x="14.4453" y="0.195312" width="37.1094" height="37.1094" rx="9.44531" fill="white"/>
<rect x="14.4453" y="0.195312" width="37.1094" height="37.1094" rx="9.44531" stroke="#77BDE0" stroke-width="0.390625"/>
<path d="M44.8327 29.9479H21.9485C21.4414 29.9479 21.0208 29.5273 21.0208 29.0201C21.0208 28.513 21.4414 28.0924 21.9485 28.0924H44.8327C45.3398 28.0924 45.7604 28.513 45.7604 29.0201C45.7604 29.5273 45.3398 29.9479 44.8327 29.9479Z" fill="url(#paint0_linear_1122_1232)"/>
<g opacity="0.4">
<path d="M44.0162 19.6809L35.0728 28.6243C33.3163 30.3808 30.4836 30.3808 28.7395 28.6367L23.037 22.9342L38.3261 7.64514L44.0285 13.3476C45.7727 15.0918 45.7727 17.9244 44.0162 19.6809Z" fill="#292D32"/>
<path d="M44.0162 19.6809L35.0728 28.6243C33.3163 30.3808 30.4836 30.3808 28.7395 28.6367L23.037 22.9342L38.3261 7.64514L44.0285 13.3476C45.7727 15.0918 45.7727 17.9244 44.0162 19.6809Z" fill="url(#paint1_linear_1122_1232)"/>
</g>
<path d="M38.3256 7.64523L23.0242 22.9343L21.8985 21.8086C20.1544 20.0645 20.1544 17.2318 21.9109 15.4753L30.8543 6.53195C32.6108 4.77544 35.4435 4.77544 37.1876 6.51958L38.3256 7.64523Z" fill="#292D32"/>
<path d="M38.3256 7.64523L23.0242 22.9343L21.8985 21.8086C20.1544 20.0645 20.1544 17.2318 21.9109 15.4753L30.8543 6.53195C32.6108 4.77544 35.4435 4.77544 37.1876 6.51958L38.3256 7.64523Z" fill="url(#paint2_linear_1122_1232)"/>
<path d="M34.4919 24.5052L32.822 26.1751C32.4756 26.5215 31.919 26.5215 31.5726 26.1751C31.2263 25.8288 31.2263 25.2721 31.5726 24.9258L33.2426 23.2559C33.5889 22.9095 34.1455 22.9095 34.4919 23.2559C34.8383 23.6022 34.8383 24.1589 34.4919 24.5052Z" fill="#1D91CC"/>
<path d="M39.91 19.0872L36.5825 22.4147C36.2361 22.7611 35.6795 22.7611 35.3331 22.4147C34.9868 22.0684 34.9868 21.5117 35.3331 21.1654L38.6606 17.8379C39.007 17.4915 39.5636 17.4915 39.91 17.8379C40.2439 18.1842 40.2439 18.7409 39.91 19.0872Z" fill="#1D91CC"/>
<path d="M13.2632 61.004C13.0352 61.124 11.8112 61.808 9.79519 61.808C7.51519 61.82 5.73919 60.476 5.84719 58.388C5.96719 56.024 8.19919 54.44 11.8232 54.272C11.5952 54.128 11.3672 53.984 11.1512 53.84C10.1672 53.168 9.44719 52.748 8.64319 52.736C7.89919 52.748 7.33519 53.276 7.09519 53.756L6.44719 53.312C6.96319 52.28 7.73119 51.692 8.66719 51.716C9.65119 51.692 10.4912 52.256 11.6072 53.06C12.2552 53.54 12.7112 53.888 13.2632 54.092L13.1432 55.1C9.17119 55.064 6.90319 56.54 6.79519 58.448C6.74719 59.744 7.95919 60.704 9.79519 60.728C11.3312 60.752 12.5432 60.308 12.8912 60.164L13.2632 61.004ZM7.63519 49.7C7.92319 49.412 8.19919 49.124 8.48719 48.848C8.77519 49.124 9.05119 49.412 9.33919 49.7L8.48719 50.552C8.19919 50.264 7.92319 49.988 7.63519 49.7ZM18.0809 57.5C17.7569 57.5 17.4929 57.416 17.2769 57.284V57.464C17.2769 58.916 15.8729 60.296 14.0369 60.944L13.6289 60.008C15.2009 59.468 16.3529 58.34 16.3529 57.464C16.3529 56.972 15.9929 55.448 15.7409 54.464L16.6649 54.116C16.7849 54.5 16.8929 54.908 16.9769 55.328C17.2169 56.12 17.5169 56.42 18.0809 56.42H18.1649L18.2249 56.96L18.1649 57.5H18.0809ZM18.0455 57.5V56.42H18.6695C19.9895 56.42 20.4935 56.072 20.4815 55.364C20.4815 54.8 20.0015 53.468 19.8455 53.132L20.7095 52.676C20.9495 53.192 21.4175 54.536 21.4175 55.4C21.4055 56.792 20.4095 57.5 18.6695 57.5H18.0455ZM19.0775 51.068C19.3655 50.78 19.6415 50.492 19.9295 50.216C20.2175 50.492 20.4935 50.78 20.7815 51.068L19.9295 51.92C19.6415 51.632 19.3655 51.356 19.0775 51.068ZM28.2214 55.052C27.8734 55.796 27.5614 56.66 27.5494 57.464C27.5254 59.036 28.4614 59.864 30.1534 59.864C32.2054 59.864 33.0574 58.58 33.0574 57.464C33.0574 56.624 32.6614 55.268 32.3974 54.464L33.2854 54.056C33.4174 54.452 33.5254 54.824 33.6094 55.16C33.8854 56.072 34.1494 56.42 34.7614 56.42H34.8334L34.8934 56.96L34.8334 57.5H34.7614C34.4374 57.5 34.1854 57.356 33.9574 57.128C33.9694 57.248 33.9694 57.356 33.9694 57.464C33.9694 59.144 32.6374 60.944 30.1534 60.944C27.7174 60.944 26.5414 59.264 26.6134 57.464C26.6494 56.444 27.0694 55.34 27.4054 54.668L28.2214 55.052ZM29.5534 54.236C29.8414 53.948 30.1174 53.66 30.4054 53.384C30.6934 53.66 30.9694 53.948 31.2574 54.236L30.4054 55.088C30.1174 54.8 29.8414 54.524 29.5534 54.236ZM34.7338 57.5L34.6738 56.96L34.7338 56.42H35.4178C37.1698 56.42 37.7578 56.096 37.7578 55.364C37.7458 54.8 37.2778 53.48 37.1098 53.132L37.9738 52.676C38.2258 53.192 38.6938 54.5 38.6818 55.364C38.6698 56.756 37.6498 57.5 35.5498 57.5H34.7338ZM34.8298 59.432C35.0938 59.168 35.3698 58.904 35.6338 58.628L36.4378 59.432C36.1738 59.708 35.9098 59.972 35.6338 60.248C35.3698 59.972 35.0938 59.708 34.8298 59.432ZM36.9658 59.432C37.2298 59.168 37.5058 58.904 37.7698 58.628L38.5738 59.432C38.3098 59.708 38.0458 59.972 37.7698 60.248C37.5058 59.972 37.2298 59.708 36.9658 59.432ZM43.6278 57.5C43.3038 57.5 43.0398 57.416 42.8238 57.284V57.464C42.8238 58.916 41.4198 60.296 39.5838 60.944L39.1758 60.008C40.7478 59.468 41.8998 58.34 41.8998 57.464C41.8998 56.972 41.5398 55.448 41.2878 54.464L42.2118 54.116C42.3318 54.5 42.4398 54.908 42.5238 55.328C42.7638 56.12 43.0638 56.42 43.6278 56.42H43.7118L43.7718 56.96L43.7118 57.5H43.6278ZM43.5923 57.5V56.42H43.7003C45.5843 56.42 46.0403 56.18 46.2443 55.64C46.4003 55.232 46.2803 54.512 46.1723 53.804L47.0603 53.636C47.2163 54.428 47.2163 55.556 47.2163 55.556C47.3243 56.12 47.6963 56.42 48.3083 56.42H48.3923L48.4523 56.96L48.3923 57.5H48.3083C47.6123 57.5 47.0483 57.104 46.7603 56.552C46.3763 57.26 45.5123 57.5 43.7003 57.5H43.5923ZM43.9883 51.824C44.2523 51.56 44.5283 51.296 44.7923 51.02L45.5963 51.824C45.3323 52.1 45.0683 52.364 44.7923 52.64C44.5283 52.364 44.2523 52.1 43.9883 51.824ZM46.1243 51.824C46.3883 51.56 46.6643 51.296 46.9283 51.02L47.7323 51.824C47.4683 52.1 47.2043 52.364 46.9283 52.64C46.6643 52.364 46.3883 52.1 46.1243 51.824ZM48.2681 57.5V56.42H48.5081C49.1561 56.42 49.7081 56.048 50.1041 55.304C50.7401 54.128 51.4001 53.072 52.3361 53.024C53.4281 52.964 53.9441 53.852 54.2081 54.92C54.4481 55.892 54.6641 56.42 55.2161 56.42H55.3241L55.3841 56.96L55.3241 57.5H55.2161C54.5441 57.5 54.2201 57.092 54.0641 56.516C54.0161 56.924 53.6561 57.284 53.3561 57.44C52.7561 57.764 51.7361 57.392 50.4161 56.54C49.9361 57.176 49.2521 57.5 48.4841 57.5H48.2681ZM50.8961 55.676C52.0361 56.468 52.9361 56.696 53.2361 56.576C53.8241 56.012 53.3561 54.008 52.4201 54.008C51.9041 54.008 51.3881 54.74 50.8961 55.676ZM60.3176 48.944L60.6296 49.832L56.8736 51.464C58.1576 52.544 59.7416 54.524 59.2016 55.916C58.8056 57.02 57.4616 57.5 55.5056 57.5H55.2056V56.42H55.5056C57.1136 56.42 58.0736 56.132 58.3136 55.556C58.6376 54.776 57.6656 53.36 55.8056 51.86L55.9376 50.84L60.3176 48.944ZM9.11283 73.856C9.49683 74.036 9.97683 74.192 10.5408 74.312C10.7928 73.88 11.0448 73.472 11.3088 73.1C11.4408 71.456 11.1648 68.144 11.0208 67.364L11.9808 67.148C12.1008 67.844 12.3168 70.112 12.2448 71.996C13.1328 71.096 14.0808 70.604 14.9808 70.592C16.3248 70.604 17.3088 71.54 17.1888 72.824C17.1288 73.496 16.7928 74.072 16.2408 74.528C16.8408 74.468 17.4528 74.42 17.8128 74.42L17.8728 74.96L17.8128 75.5C16.7448 75.5 15.5808 75.416 14.8728 75.26C14.2008 75.488 13.4328 75.608 12.5808 75.608C11.0808 75.608 9.72483 75.272 8.78883 74.84L9.11283 73.856ZM11.4888 74.468C11.8008 74.504 12.1128 74.528 12.4368 74.528C14.7048 74.564 16.2288 73.688 16.3128 72.728C16.3728 72.104 15.8688 71.612 14.9808 71.636C13.8048 71.684 12.5808 72.704 11.4888 74.468ZM17.6763 75.5V74.42H17.7843C19.6683 74.42 20.1243 74.18 20.3283 73.64C20.4843 73.232 20.3643 72.512 20.2563 71.804L21.1443 71.636C21.3003 72.428 21.3003 73.556 21.3003 73.556C21.4083 74.12 21.7803 74.42 22.3923 74.42H22.4763L22.5363 74.96L22.4763 75.5H22.3923C21.6963 75.5 21.1323 75.104 20.8443 74.552C20.4603 75.26 19.5963 75.5 17.7843 75.5H17.6763ZM17.0883 77.432C17.3523 77.168 17.6283 76.904 17.8923 76.628L18.6963 77.432C18.4323 77.708 18.1683 77.972 17.8923 78.248C17.6283 77.972 17.3523 77.708 17.0883 77.432ZM19.2243 77.432C19.4883 77.168 19.7643 76.904 20.0283 76.628L20.8323 77.432C20.5683 77.708 20.3043 77.972 20.0283 78.248C19.7643 77.972 19.4883 77.708 19.2243 77.432ZM25.8921 74.42H26.0241L26.0841 74.96L26.0241 75.5H25.8921C25.2801 75.5 24.7281 75.176 24.3681 74.612C24.0441 75.176 23.4921 75.5 22.7001 75.5H22.3521V74.42H22.6881C23.5761 74.42 23.9601 74.06 23.9841 73.232V73.112C23.9961 72.788 23.8161 68.228 23.7321 67.352L24.6921 67.148C24.8001 68.048 24.8961 72.572 24.9201 73.124C24.9681 74.024 25.3041 74.42 25.8921 74.42ZM25.9029 75.5V74.42H26.5269C27.8469 74.42 28.3509 74.072 28.3389 73.364C28.3389 72.8 27.8589 71.468 27.7029 71.132L28.5669 70.676C28.8069 71.192 29.2749 72.536 29.2749 73.4C29.2629 74.792 28.2669 75.5 26.5269 75.5H25.9029ZM25.9389 77.468C26.2269 77.18 26.5029 76.892 26.7909 76.616C27.0789 76.892 27.3549 77.18 27.6429 77.468L26.7909 78.32C26.5029 78.032 26.2269 77.756 25.9389 77.468ZM36.9188 69.944L37.7828 69.488L39.4268 73.376C39.7508 74.156 40.1108 74.42 40.8068 74.42H40.9388L40.9988 74.96L40.9388 75.5H40.8068C40.0988 75.5 39.5348 75.26 39.0908 74.708C38.6348 75.08 37.9148 75.548 36.8108 75.548C35.5748 75.548 34.7828 75.02 34.3268 74.684L34.7948 73.892C35.1428 74.096 35.8028 74.516 36.7268 74.516C37.5908 74.516 38.2268 74.192 38.6228 73.928L38.5988 73.868L36.9188 69.944ZM40.8209 75.5V74.42H41.3009C43.0529 74.42 43.6409 74.096 43.6409 73.364C43.6289 72.8 43.1609 71.48 42.9929 71.132L43.8569 70.676C44.1089 71.192 44.5769 72.5 44.5649 73.364C44.5529 74.756 43.5329 75.5 41.4329 75.5H40.8209ZM40.1489 77.456C40.4129 77.192 40.6889 76.928 40.9529 76.652L41.7569 77.456C41.4929 77.732 41.2289 77.996 40.9529 78.272C40.6889 77.996 40.4129 77.732 40.1489 77.456ZM42.2849 77.456C42.5489 77.192 42.8249 76.928 43.0889 76.652L43.8929 77.456C43.6289 77.732 43.3649 77.996 43.0889 78.272C42.8249 77.996 42.5489 77.732 42.2849 77.456ZM49.0243 75.5C48.7003 75.5 48.4363 75.416 48.2203 75.284V75.464C48.2203 76.916 46.8163 78.296 44.9803 78.944L44.5723 78.008C46.1443 77.468 47.2963 76.34 47.2963 75.464C47.2963 74.972 46.9363 73.448 46.6843 72.464L47.6083 72.116C47.7283 72.5 47.8363 72.908 47.9203 73.328C48.1603 74.12 48.4603 74.42 49.0243 74.42H49.1083L49.1683 74.96L49.1083 75.5H49.0243ZM48.9768 75.5V74.42H50.0808C52.2048 74.42 53.8848 73.844 55.4928 72.992C55.6608 72.896 55.8288 72.812 55.9968 72.74C55.4568 72.644 54.9408 72.452 54.3888 72.176C53.7288 71.828 53.1048 71.564 52.4808 71.564C51.7488 71.552 51.1728 72.092 50.9328 72.572L50.2848 72.128C50.8008 71.084 51.5808 70.532 52.5168 70.544C53.2488 70.556 53.8368 70.856 54.7368 71.312C55.5168 71.708 56.1648 72.056 57.0528 72.236L57.0888 73.184C56.7528 73.28 56.4288 73.448 55.8528 73.76C54.0888 74.684 52.3368 75.5 50.0808 75.5H48.9768ZM51.5328 68.672C51.8208 68.384 52.0968 68.096 52.3848 67.82C52.6728 68.096 52.9488 68.384 53.2368 68.672L52.3848 69.524C52.0968 69.236 51.8208 68.96 51.5328 68.672Z" fill="#092B3D"/>
<defs>
<linearGradient id="paint0_linear_1122_1232" x1="36.3727" y1="29.2267" x2="36.2253" y2="26.2971" gradientUnits="userSpaceOnUse">
<stop stop-color="#1D91CC"/>
<stop offset="1" stop-color="#D0DFE9"/>
</linearGradient>
<linearGradient id="paint1_linear_1122_1232" x1="33.9664" y1="8.53803" x2="33.9664" y2="44.1178" gradientUnits="userSpaceOnUse">
<stop stop-color="#61BAE8"/>
<stop offset="1" stop-color="#D2E8F3"/>
</linearGradient>
<linearGradient id="paint2_linear_1122_1232" x1="31.5964" y1="16.0463" x2="18.6222" y2="-3.30645" gradientUnits="userSpaceOnUse">
<stop stop-color="#1D91CC"/>
<stop offset="1" stop-color="#D0DFE9"/>
</linearGradient>
</defs>
</svg>
