<svg width="109" height="82" viewBox="0 0 109 82" fill="none" xmlns="http://www.w3.org/2000/svg">
<rect x="35.9453" y="0.195312" width="37.1094" height="37.1094" rx="9.44531" fill="white"/>
<rect x="35.9453" y="0.195312" width="37.1094" height="37.1094" rx="9.44531" stroke="#77BDE0" stroke-width="0.390625"/>
<path d="M65.4697 18.1679C65.4697 11.789 60.2926 6.61194 53.9137 6.61194C47.5348 6.61194 42.3577 11.789 42.3577 18.1679C42.3577 24.5468 47.5348 29.7239 53.9137 29.7239" stroke="#292D32" stroke-width="1.7334" stroke-linecap="round" stroke-linejoin="round"/>
<path d="M65.4697 18.1679C65.4697 11.789 60.2926 6.61194 53.9137 6.61194C47.5348 6.61194 42.3577 11.789 42.3577 18.1679C42.3577 24.5468 47.5348 29.7239 53.9137 29.7239" stroke="url(#paint0_linear_1122_1192)" stroke-width="1.7334" stroke-linecap="round" stroke-linejoin="round"/>
<path d="M49.2909 7.76758H50.4465C48.1931 14.5163 48.1931 21.8197 50.4465 28.5684H49.2909" stroke="#292D32" stroke-width="1.7334" stroke-linecap="round" stroke-linejoin="round"/>
<path d="M49.2909 7.76758H50.4465C48.1931 14.5163 48.1931 21.8197 50.4465 28.5684H49.2909" stroke="url(#paint1_linear_1122_1192)" stroke-width="1.7334" stroke-linecap="round" stroke-linejoin="round"/>
<path d="M57.3805 7.76758C58.5014 11.1419 59.0677 14.6549 59.0677 18.168" stroke="#292D32" stroke-width="1.7334" stroke-linecap="round" stroke-linejoin="round"/>
<path d="M57.3805 7.76758C58.5014 11.1419 59.0677 14.6549 59.0677 18.168" stroke="#91D0F0" stroke-width="1.7334" stroke-linecap="round" stroke-linejoin="round"/>
<path d="M57.3805 7.76758C58.5014 11.1419 59.0677 14.6549 59.0677 18.168" stroke="url(#paint2_linear_1122_1192)" stroke-width="1.7334" stroke-linecap="round" stroke-linejoin="round"/>
<path d="M43.5133 22.7904V21.6348C46.8877 22.7557 50.4007 23.322 53.9137 23.322" stroke="#292D32" stroke-width="1.7334" stroke-linecap="round" stroke-linejoin="round"/>
<path d="M43.5133 22.7904V21.6348C46.8877 22.7557 50.4007 23.322 53.9137 23.322" stroke="#91D0F0" stroke-width="1.7334" stroke-linecap="round" stroke-linejoin="round"/>
<path d="M43.5133 14.701C50.262 12.4476 57.5654 12.4476 64.3141 14.701" stroke="#292D32" stroke-width="1.7334" stroke-linecap="round" stroke-linejoin="round"/>
<path d="M43.5133 14.701C50.262 12.4476 57.5654 12.4476 64.3141 14.701" stroke="url(#paint3_linear_1122_1192)" stroke-width="1.7334" stroke-linecap="round" stroke-linejoin="round"/>
<path d="M64.6395 27.541C64.4416 27.541 64.2541 27.4681 64.0978 27.3222C63.0874 26.3535 61.7749 26.3535 60.7541 27.3222C60.4416 27.6243 59.952 27.6139 59.6499 27.3014C59.3478 26.9889 59.3582 26.4993 59.6707 26.1973C61.2853 24.6452 63.5457 24.6452 65.1707 26.1973C65.4832 26.4993 65.4936 26.9889 65.1916 27.3014C65.0561 27.4577 64.8478 27.541 64.6395 27.541Z" fill="#1D91CC"/>
<path d="M66.8516 25.3314C66.6537 25.3314 66.4558 25.2585 66.31 25.1126C65.8204 24.6335 65.2683 24.2481 64.685 23.9668C63.2266 23.2689 61.6329 23.2689 60.185 23.9668C59.6016 24.2481 59.06 24.6335 58.56 25.1126C58.2579 25.4147 57.7579 25.4147 57.4558 25.1022C57.1537 24.7897 57.1641 24.3001 57.4662 23.9981C58.0808 23.3939 58.7683 22.9147 59.5079 22.5605C61.3933 21.6543 63.4766 21.6543 65.3516 22.5605C66.0912 22.9147 66.7787 23.3939 67.3933 23.9981C67.7058 24.3001 67.7058 24.7897 67.4037 25.1022C67.2579 25.248 67.0599 25.3314 66.8516 25.3314Z" fill="#1D91CC"/>
<path d="M62.4349 30.0072C62.1641 30.0072 61.9036 29.903 61.6953 29.7051C61.2891 29.2989 61.2891 28.6426 61.6953 28.2363C62.1016 27.8301 62.7682 27.8301 63.1745 28.2363C63.5807 28.6426 63.5807 29.2989 63.1745 29.7051C62.9661 29.903 62.7057 30.0072 62.4349 30.0072Z" fill="#1D91CC"/>
<path d="M38.7498 53.456C38.5698 53.96 38.3418 54.644 38.4258 55.184C38.5458 56.024 39.6978 56.528 41.9778 56.54C44.3298 56.528 45.4578 55.904 45.5418 55.544C45.4698 54.788 44.9418 53.36 44.8578 53.144L45.7218 52.676C45.9858 53.3 46.4538 54.776 46.4298 55.532C46.3938 56.816 44.5338 57.596 42.0378 57.62C39.2538 57.632 37.6458 56.816 37.5018 55.34C37.4298 54.56 37.6818 53.636 37.9338 53.048L38.7498 53.456ZM40.0578 53.3C40.3218 53.036 40.5978 52.772 40.8618 52.496L41.6658 53.3C41.4018 53.576 41.1378 53.84 40.8618 54.116C40.5978 53.84 40.3218 53.576 40.0578 53.3ZM42.1938 53.3C42.4578 53.036 42.7338 52.772 42.9978 52.496L43.8018 53.3C43.5378 53.576 43.2738 53.84 42.9978 54.116C42.7338 53.84 42.4578 53.576 42.1938 53.3ZM48.7121 49.148C48.8561 50.132 48.9401 53.3 48.9161 54.572C48.8801 55.94 48.9521 56.42 50.1761 56.42H50.2361L50.2961 56.96L50.2361 57.5H50.1761C48.3881 57.5 47.9321 56.588 47.9681 54.68C47.9801 53.276 47.9081 50.36 47.7521 49.352L48.7121 49.148ZM50.1216 57.5L50.1336 56.42H50.3616C51.0096 56.42 51.5856 56.06 51.9576 55.304C52.5336 54.14 53.2536 53.072 54.1896 53.024C56.2656 52.904 56.9496 56.504 55.2096 57.44C54.5976 57.764 53.5656 57.38 52.2576 56.54C51.7656 57.176 51.1056 57.5 50.3376 57.5H50.1216ZM52.7496 55.688C53.8056 56.348 54.6096 56.66 54.9096 56.492C55.7136 56.084 55.3296 54.008 54.2736 54.008C53.8056 54.008 53.3136 54.632 52.7496 55.688ZM59.6258 51.944L60.4898 51.488L62.1338 55.376C62.4578 56.156 62.8178 56.42 63.5138 56.42H63.6458L63.7058 56.96L63.6458 57.5H63.5138C62.8058 57.5 62.2418 57.26 61.7978 56.708C61.3418 57.08 60.6218 57.548 59.5178 57.548C58.2818 57.548 57.4898 57.02 57.0338 56.684L57.5018 55.892C57.8498 56.096 58.5098 56.516 59.4338 56.516C60.2978 56.516 60.9338 56.192 61.3298 55.928L61.3058 55.868L59.6258 51.944ZM63.5159 57.5V56.42H64.6199C66.7439 56.42 68.4239 55.844 70.0319 54.992C70.1999 54.896 70.3679 54.812 70.5359 54.74C69.9959 54.644 69.4799 54.452 68.9279 54.176C68.2679 53.828 67.6439 53.564 67.0199 53.564C66.2879 53.552 65.7119 54.092 65.4719 54.572L64.8239 54.128C65.3399 53.084 66.1199 52.532 67.0559 52.544C67.7879 52.556 68.3759 52.856 69.2759 53.312C70.0559 53.708 70.7039 54.056 71.5919 54.236L71.6279 55.184C71.2919 55.28 70.9679 55.448 70.3919 55.76C68.6279 56.684 66.8759 57.5 64.6199 57.5H63.5159ZM66.0719 50.672C66.3599 50.384 66.6359 50.096 66.9239 49.82C67.2119 50.096 67.4879 50.384 67.7759 50.672L66.9239 51.524C66.6359 51.236 66.3599 50.96 66.0719 50.672ZM42.6022 73.052C42.2542 73.796 41.9422 74.66 41.9302 75.464C41.9062 77.036 42.8422 77.864 44.5342 77.864C46.5862 77.864 47.4382 76.58 47.4382 75.464C47.4382 74.624 47.0422 73.268 46.7782 72.464L47.6662 72.056C47.7982 72.452 47.9062 72.824 47.9902 73.16C48.2662 74.072 48.5302 74.42 49.1422 74.42H49.2142L49.2742 74.96L49.2142 75.5H49.1422C48.8182 75.5 48.5662 75.356 48.3382 75.128C48.3502 75.248 48.3502 75.356 48.3502 75.464C48.3502 77.144 47.0182 78.944 44.5342 78.944C42.0982 78.944 40.9222 77.264 40.9942 75.464C41.0302 74.444 41.4502 73.34 41.7862 72.668L42.6022 73.052ZM43.9342 72.236C44.2222 71.948 44.4982 71.66 44.7862 71.384C45.0742 71.66 45.3502 71.948 45.6382 72.236L44.7862 73.088C44.4982 72.8 44.2222 72.524 43.9342 72.236ZM49.1147 75.5L49.0547 74.96L49.1147 74.42H49.7987C51.5507 74.42 52.1387 74.096 52.1387 73.364C52.1267 72.8 51.6587 71.48 51.4907 71.132L52.3547 70.676C52.6067 71.192 53.0747 72.5 53.0627 73.364C53.0507 74.756 52.0307 75.5 49.9307 75.5H49.1147ZM49.2107 77.432C49.4747 77.168 49.7507 76.904 50.0147 76.628L50.8187 77.432C50.5547 77.708 50.2907 77.972 50.0147 78.248C49.7507 77.972 49.4747 77.708 49.2107 77.432ZM51.3467 77.432C51.6107 77.168 51.8867 76.904 52.1507 76.628L52.9547 77.432C52.6907 77.708 52.4267 77.972 52.1507 78.248C51.8867 77.972 51.6107 77.708 51.3467 77.432ZM60.8526 75.5C59.8326 75.5 59.2806 74.888 59.0286 73.976C58.2366 75.176 56.5926 75.692 54.7806 75.86L54.5166 74.804C54.8886 74.768 55.2486 74.708 55.5966 74.648C55.9206 73.424 55.0926 70.892 54.1566 68.732L54.9726 68.192C56.1246 70.676 56.7726 73.076 56.5446 74.408C57.7326 74.036 58.5726 73.388 58.5726 72.308C58.5726 70.58 58.4286 69.188 58.2126 67.352L59.1726 67.148C59.4006 68.996 59.5926 70.544 59.5326 72.296C59.5446 73.664 59.8326 74.42 60.8646 74.42H60.9846V75.5H60.8526ZM60.8677 75.5V74.42H61.4917C62.8117 74.42 63.3157 74.072 63.3037 73.364C63.3037 72.8 62.8237 71.468 62.6677 71.132L63.5317 70.676C63.7717 71.192 64.2397 72.536 64.2397 73.4C64.2277 74.792 63.2317 75.5 61.4917 75.5H60.8677ZM61.8997 69.068C62.1877 68.78 62.4637 68.492 62.7517 68.216C63.0397 68.492 63.3157 68.78 63.6037 69.068L62.7517 69.92C62.4637 69.632 62.1877 69.356 61.8997 69.068ZM66.294 75.428C66.462 73.82 66.306 69.428 66.15 68.42L67.11 68.216C67.266 69.212 67.47 73.676 67.254 75.548L66.294 75.428ZM64.674 67.544C64.938 66.896 65.346 66.512 65.826 66.488C66.45 66.452 66.762 66.848 67.266 66.848C67.566 66.848 67.902 66.656 68.106 66.356L68.502 66.704C68.19 67.172 67.722 67.46 67.266 67.46C66.666 67.46 66.378 67.076 65.862 67.1C65.562 67.112 65.286 67.352 65.118 67.784L64.674 67.544Z" fill="#092B3D"/>
<defs>
<linearGradient id="paint0_linear_1122_1192" x1="53.6861" y1="7.53742" x2="53.6861" y2="44.4159" gradientUnits="userSpaceOnUse">
<stop stop-color="#61BAE8"/>
<stop offset="1" stop-color="#D2E8F3"/>
</linearGradient>
<linearGradient id="paint1_linear_1122_1192" x1="49.6014" y1="7.76758" x2="49.6014" y2="28.5684" gradientUnits="userSpaceOnUse">
<stop stop-color="#62BBE8"/>
<stop offset="1" stop-color="#91D0F0"/>
</linearGradient>
<linearGradient id="paint2_linear_1122_1192" x1="58.2241" y1="7.76758" x2="58.2241" y2="18.168" gradientUnits="userSpaceOnUse">
<stop stop-color="#62BBE8"/>
<stop offset="1" stop-color="#91D0F0"/>
</linearGradient>
<linearGradient id="paint3_linear_1122_1192" x1="41.8047" y1="15.0435" x2="65.6328" y2="14.8482" gradientUnits="userSpaceOnUse">
<stop offset="0.00770674" stop-color="#74C2EA"/>
<stop offset="1" stop-color="#73C2EA"/>
</linearGradient>
</defs>
</svg>
