<svg width="62" height="82" viewBox="0 0 62 82" fill="none" xmlns="http://www.w3.org/2000/svg">
<rect x="12.4453" y="0.195313" width="37.1094" height="37.1094" rx="9.44531" fill="white"/>
<rect x="12.4453" y="0.195313" width="37.1094" height="37.1094" rx="9.44531" stroke="#77BDE0" stroke-width="0.390625"/>
<g opacity="0.4">
<path d="M19.8596 26.365C19.3657 26.365 18.9562 25.9554 18.9562 25.4616V18.5964C18.896 15.3324 20.1125 12.2491 22.3768 9.93656C24.6411 7.63611 27.6763 6.37146 30.9403 6.37146C37.6128 6.37146 43.0448 11.8034 43.0448 18.476V25.3412C43.0448 25.835 42.6353 26.2445 42.1415 26.2445C41.6476 26.2445 41.2381 25.835 41.2381 25.3412V18.476C41.2381 12.8031 36.6252 8.1781 30.9403 8.1781C28.1581 8.1781 25.5806 9.25004 23.6655 11.2012C21.7385 13.1644 20.7147 15.778 20.7629 18.5723V25.4496C20.7629 25.9554 20.3654 26.365 19.8596 26.365Z" fill="#292D32"/>
<path d="M19.8596 26.365C19.3657 26.365 18.9562 25.9554 18.9562 25.4616V18.5964C18.896 15.3324 20.1125 12.2491 22.3768 9.93656C24.6411 7.63611 27.6763 6.37146 30.9403 6.37146C37.6128 6.37146 43.0448 11.8034 43.0448 18.476V25.3412C43.0448 25.835 42.6353 26.2445 42.1415 26.2445C41.6476 26.2445 41.2381 25.835 41.2381 25.3412V18.476C41.2381 12.8031 36.6252 8.1781 30.9403 8.1781C28.1581 8.1781 25.5806 9.25004 23.6655 11.2012C21.7385 13.1644 20.7147 15.778 20.7629 18.5723V25.4496C20.7629 25.9554 20.3654 26.365 19.8596 26.365Z" fill="url(#paint0_linear_1122_1165)"/>
</g>
<path d="M23.7008 18.8975H23.5442C21.0149 18.8975 18.9553 20.957 18.9553 23.4863V25.7506C18.9553 28.2799 21.0149 30.3395 23.5442 30.3395H23.7008C26.2301 30.3395 28.2896 28.2799 28.2896 25.7506V23.4863C28.2896 20.957 26.2301 18.8975 23.7008 18.8975Z" fill="#292D32"/>
<path d="M23.7008 18.8975H23.5442C21.0149 18.8975 18.9553 20.957 18.9553 23.4863V25.7506C18.9553 28.2799 21.0149 30.3395 23.5442 30.3395H23.7008C26.2301 30.3395 28.2896 28.2799 28.2896 25.7506V23.4863C28.2896 20.957 26.2301 18.8975 23.7008 18.8975Z" fill="url(#paint1_linear_1122_1165)"/>
<path d="M38.4552 18.8975H38.2986C35.7693 18.8975 33.7097 20.957 33.7097 23.4863V25.7506C33.7097 28.2799 35.7693 30.3395 38.2986 30.3395H38.4552C40.9845 30.3395 43.044 28.2799 43.044 25.7506V23.4863C43.044 20.957 40.9845 18.8975 38.4552 18.8975Z" fill="#292D32"/>
<path d="M38.4552 18.8975H38.2986C35.7693 18.8975 33.7097 20.957 33.7097 23.4863V25.7506C33.7097 28.2799 35.7693 30.3395 38.2986 30.3395H38.4552C40.9845 30.3395 43.044 28.2799 43.044 25.7506V23.4863C43.044 20.957 40.9845 18.8975 38.4552 18.8975Z" fill="url(#paint2_linear_1122_1165)"/>
<rect x="40.3125" y="27.2617" width="2.40885" height="9.88012" rx="1.20443" transform="rotate(63.783 40.3125 27.2617)" fill="#1D91CC"/>
<path d="M9.97703 60.848C7.86503 60.848 6.34103 59.528 6.43703 57.368C6.47303 56.36 6.89303 55.244 7.22903 54.572L8.04503 54.956C7.69703 55.7 7.38503 56.564 7.37303 57.368C7.34903 58.94 8.28503 59.768 9.97703 59.768C11.537 59.768 12.797 59.024 12.917 58.604C12.809 58.34 11.717 57.548 10.529 57.056L10.757 56.036C11.861 56.264 13.121 56.42 14.237 56.42H14.753L14.813 56.96L14.753 57.5H14.237C13.805 57.5 13.337 57.464 12.869 57.416C13.433 57.788 13.853 58.208 13.841 58.64C13.793 59.744 12.053 60.848 9.97703 60.848ZM14.6518 57.5L14.5918 56.96L14.6518 56.42H15.3358C17.0878 56.42 17.6758 56.096 17.6758 55.364C17.6638 54.8 17.1958 53.48 17.0278 53.132L17.8918 52.676C18.1438 53.192 18.6118 54.5 18.5998 55.364C18.5878 56.756 17.5678 57.5 15.4678 57.5H14.6518ZM14.7478 59.432C15.0118 59.168 15.2878 58.904 15.5518 58.628L16.3558 59.432C16.0918 59.708 15.8278 59.972 15.5518 60.248C15.2878 59.972 15.0118 59.708 14.7478 59.432ZM16.8838 59.432C17.1478 59.168 17.4238 58.904 17.6878 58.628L18.4918 59.432C18.2278 59.708 17.9638 59.972 17.6878 60.248C17.4238 59.972 17.1478 59.708 16.8838 59.432ZM19.4538 59.984C21.7218 59.492 22.9338 58.7 23.1738 57.512C21.7578 57.524 20.4018 57.428 19.9338 56.504C19.2978 55.22 20.3418 52.916 21.6978 52.916C23.0538 52.916 23.8818 54.776 24.0378 56.42H24.4818L24.5418 56.96L24.4818 57.5H24.0258C23.7498 59.228 22.2018 60.452 19.7658 60.944L19.4538 59.984ZM20.7018 55.904C20.9778 56.336 22.0818 56.42 23.1858 56.42C23.0418 55.256 22.5378 54.032 21.6738 53.972C20.9658 53.924 20.3298 55.316 20.7018 55.904ZM30.5466 57.5C29.6106 57.5 29.0106 56.948 28.2546 55.856L28.2306 55.916C27.8226 57.032 26.5506 57.5 24.6306 57.5H24.3306V56.42H24.6306C26.2026 56.42 27.1026 56.18 27.4026 55.616C27.7866 54.92 26.7666 53.468 24.9306 52.064L25.0506 51.032L29.4426 49.148L29.7546 50.024L25.9986 51.656C26.6826 52.22 27.3906 52.976 27.8586 53.768C29.0226 55.652 29.5866 56.42 30.5466 56.42H30.7026L30.7626 56.96L30.7026 57.5H30.5466ZM25.1226 50.192L25.1826 49.628L28.9866 48.008L29.1666 48.464L25.1226 50.192ZM39.649 56.42H39.769L39.829 56.96L39.769 57.5H39.649C38.257 57.488 37.381 56.996 36.961 56C35.353 56.816 33.721 57.5 31.657 57.5H30.553V56.42H31.657C33.781 56.42 35.461 55.844 37.069 54.992C37.237 54.896 37.405 54.812 37.573 54.74C37.033 54.644 36.517 54.452 35.965 54.176C35.305 53.828 34.681 53.564 34.057 53.564C33.325 53.552 32.749 54.092 32.509 54.572L31.861 54.128C32.377 53.084 33.157 52.532 34.093 52.544C34.825 52.556 35.413 52.856 36.313 53.312C37.093 53.708 37.741 54.056 38.629 54.236L38.665 55.184C38.377 55.268 38.113 55.4 37.681 55.628C38.041 56.096 38.713 56.408 39.649 56.42ZM33.109 50.672C33.397 50.384 33.673 50.096 33.961 49.82C34.249 50.096 34.525 50.384 34.813 50.672L33.961 51.524C33.673 51.236 33.397 50.96 33.109 50.672ZM46.367 56.42C46.979 56.42 47.267 56.06 47.267 55.424C47.267 54.8 46.775 53.492 46.619 53.156L47.471 52.688C47.711 53.192 48.191 54.5 48.191 55.424C48.191 56.588 47.447 57.488 46.391 57.5H46.367H46.343C45.515 57.488 44.999 57.032 44.807 56.24C44.459 56.948 43.859 57.488 43.139 57.5H43.103C42.359 57.5 41.843 57.02 41.747 56.276C41.243 57.08 40.547 57.5 39.719 57.5H39.671L39.611 56.96L39.671 56.42H39.731C40.331 56.42 40.895 56.108 41.183 55.676C41.543 55.184 41.699 54.512 41.795 54.14L42.695 54.236C42.587 54.644 42.455 55.112 42.443 55.544C42.431 56.108 42.623 56.42 43.115 56.42H43.139C43.631 56.42 43.991 56.108 44.291 55.58C44.531 55.136 44.651 54.38 44.711 54.02L45.599 54.068C45.551 54.332 45.443 54.86 45.443 55.28C45.443 56.024 45.707 56.42 46.367 56.42ZM50.4016 49.148C50.5456 50.132 50.6296 53.3 50.6056 54.572C50.5696 55.94 50.6416 56.42 51.8656 56.42H51.9256L51.9856 56.96L51.9256 57.5H51.8656C50.0776 57.5 49.6216 56.588 49.6576 54.68C49.6696 53.276 49.5976 50.36 49.4416 49.352L50.4016 49.148ZM51.8111 57.5V56.42H52.2911C54.0431 56.42 54.6311 56.096 54.6311 55.364C54.6191 54.8 54.1511 53.48 53.9831 53.132L54.8471 52.676C55.0991 53.192 55.5671 54.5 55.5551 55.364C55.5431 56.756 54.5231 57.5 52.4231 57.5H51.8111ZM51.1031 59.12C51.3791 58.844 51.6431 58.58 51.9071 58.304L52.7231 59.12C52.4471 59.384 52.1831 59.648 51.9071 59.924C51.6431 59.648 51.3791 59.384 51.1031 59.12ZM52.2911 60.404L53.0111 59.672C53.2511 59.912 53.4911 60.164 53.7311 60.404L53.0111 61.124C52.7711 60.884 52.5311 60.644 52.2911 60.404ZM53.3111 59.12C53.5871 58.844 53.8511 58.58 54.1151 58.304L54.9311 59.12C54.6551 59.384 54.3911 59.648 54.1151 59.924C53.8511 59.648 53.5871 59.384 53.3111 59.12ZM11.5577 69.68C11.6537 70.724 11.7857 72.14 11.8817 72.92C12.0017 74.096 12.2057 74.42 13.0577 74.42H13.2257L13.2857 74.96L13.2257 75.5H13.0577C12.3017 75.5 11.7617 75.248 11.4137 74.684C9.4457 75.296 7.6697 74.54 7.8497 73.004C7.9817 71.84 9.1937 71.096 10.6697 70.592L10.5857 69.872L11.5577 69.68ZM8.7497 73.016C8.6777 73.676 9.6977 74.072 11.0417 73.652C10.9937 73.472 10.9697 73.28 10.9457 73.064L10.7777 71.612C9.6857 71.948 8.7977 72.524 8.7497 73.016ZM13.0865 75.5V74.42H13.1945C15.0785 74.42 15.5345 74.18 15.7385 73.64C15.8945 73.232 15.7745 72.512 15.6665 71.804L16.5545 71.636C16.7105 72.428 16.7105 73.556 16.7105 73.556C16.8185 74.12 17.1905 74.42 17.8025 74.42H17.8865L17.9465 74.96L17.8865 75.5H17.8025C17.1065 75.5 16.5425 75.104 16.2545 74.552C15.8705 75.26 15.0065 75.5 13.1945 75.5H13.0865ZM13.4825 69.824C13.7465 69.56 14.0225 69.296 14.2865 69.02L15.0905 69.824C14.8265 70.1 14.5625 70.364 14.2865 70.64C14.0225 70.364 13.7465 70.1 13.4825 69.824ZM15.6185 69.824C15.8825 69.56 16.1585 69.296 16.4225 69.02L17.2265 69.824C16.9625 70.1 16.6985 70.364 16.4225 70.64C16.1585 70.364 15.8825 70.1 15.6185 69.824ZM17.7623 75.5V74.42H17.9063C18.4943 74.42 19.0223 74.408 19.5143 74.396C19.1063 74.012 18.8423 73.52 18.8063 72.932C18.7223 71.672 19.7303 70.556 21.0143 70.412C21.8543 70.328 22.6343 70.7 23.2103 71.216L22.8263 71.96C22.3343 71.66 21.7343 71.42 21.0983 71.492C20.2223 71.588 19.6703 72.2 19.7063 72.86C19.7543 73.592 20.5703 74.228 21.6383 74.216C22.3583 74.12 22.9463 73.964 23.4863 73.76L23.7143 74.72C22.4423 75.248 20.8583 75.5 17.9063 75.5H17.7623ZM25.8801 67.148C26.0241 68.132 26.1081 71.3 26.0841 72.572C26.0481 73.94 26.1201 74.42 27.3441 74.42H27.4041L27.4641 74.96L27.4041 75.5H27.3441C25.5561 75.5 25.1001 74.588 25.1361 72.68C25.1481 71.276 25.0761 68.36 24.9201 67.352L25.8801 67.148ZM34.0096 74.42C34.6216 74.42 34.9096 74.06 34.9096 73.424C34.9096 72.8 34.4176 71.492 34.2616 71.156L35.1136 70.688C35.3536 71.192 35.8336 72.5 35.8336 73.424C35.8336 74.588 35.0896 75.488 34.0336 75.5H34.0096H33.9856C33.1576 75.488 32.6416 75.032 32.4496 74.24C32.1016 74.948 31.5016 75.488 30.7816 75.5H30.7456C30.0016 75.5 29.4856 75.02 29.3896 74.276C28.8856 75.08 28.1896 75.5 27.3616 75.5H27.3136L27.2536 74.96L27.3136 74.42H27.3736C27.9736 74.42 28.5376 74.108 28.8256 73.676C29.1856 73.184 29.3416 72.512 29.4376 72.14L30.3376 72.236C30.2296 72.644 30.0976 73.112 30.0856 73.544C30.0736 74.108 30.2656 74.42 30.7576 74.42H30.7816C31.2736 74.42 31.6336 74.108 31.9336 73.58C32.1736 73.136 32.2936 72.38 32.3536 72.02L33.2416 72.068C33.1936 72.332 33.0856 72.86 33.0856 73.28C33.0856 74.024 33.3496 74.42 34.0096 74.42ZM42.2515 75.5C42.2755 74.12 42.2035 72.356 42.0475 71.12C41.8555 69.608 41.5315 68.612 41.1475 67.736L42.1675 67.148C42.3115 67.448 42.4315 67.772 42.5395 68.132C42.8995 69.08 43.2475 69.788 44.2435 69.752C45.4195 69.704 45.5995 68.672 45.4435 67.316L46.3435 67.148C46.6915 69.152 45.9955 70.868 44.2435 70.892C43.7515 70.904 43.3675 70.784 43.0435 70.568L43.0915 70.988C43.2355 72.284 43.2835 74.096 43.2595 75.5H42.2515ZM48.687 75.5C48.711 74.12 48.639 72.356 48.483 71.12C48.291 69.608 47.967 68.612 47.583 67.736L48.603 67.148C48.807 67.568 48.963 68.048 49.107 68.576C49.299 69.224 49.563 69.716 49.887 70.076C49.875 69.992 49.863 69.908 49.851 69.824C49.755 68.552 50.715 67.34 52.071 67.232C52.947 67.172 53.631 67.58 54.219 68.048L53.799 68.852C53.391 68.576 52.767 68.336 52.179 68.372C51.327 68.42 50.715 69.044 50.799 69.764C50.907 70.772 52.035 71.408 54.171 70.328L54.447 71.312C53.283 72.056 51.063 72.452 49.527 71.036C49.671 72.332 49.719 74.12 49.695 75.5H48.687Z" fill="#092B3D"/>
<defs>
<linearGradient id="paint0_linear_1122_1165" x1="30.7622" y1="7.17206" x2="30.7622" y2="39.0745" gradientUnits="userSpaceOnUse">
<stop offset="0.402183" stop-color="#059DEA"/>
<stop offset="1" stop-color="#D2E8F3"/>
</linearGradient>
<linearGradient id="paint1_linear_1122_1165" x1="24.7476" y1="25.8921" x2="15.8624" y2="15.0876" gradientUnits="userSpaceOnUse">
<stop stop-color="#1D91CC"/>
<stop offset="1" stop-color="#D0DFE9"/>
</linearGradient>
<linearGradient id="paint2_linear_1122_1165" x1="39.502" y1="25.8921" x2="30.6168" y2="15.0876" gradientUnits="userSpaceOnUse">
<stop stop-color="#1D91CC"/>
<stop offset="1" stop-color="#D0DFE9"/>
</linearGradient>
</defs>
</svg>
